<svg width="203" height="262" viewBox="0 0 203 262" fill="none" xmlns="http://www.w3.org/2000/svg">
<path d="M2.87056 46.8279C2.20256 47.0839 1.48256 47.2319 0.726562 47.2479V47.1999C0.826563 47.1999 0.918559 47.1999 1.02256 47.1919C1.12656 47.1839 1.23455 47.1759 1.34255 47.1679C1.87455 47.1119 2.38256 46.9959 2.87056 46.8279Z" fill="#F9F8F4"/>
<path d="M7.19055 121.176C7.17855 124.776 4.31056 127.7 0.726562 127.796V127.728C4.28256 127.628 7.15055 124.744 7.19055 121.176Z" fill="#F9F8F4"/>
<path d="M7.1787 101.364C7.1667 101.532 7.15071 101.696 7.12671 101.856C7.14671 101.692 7.1707 101.528 7.1787 101.364Z" fill="#F9F8F4"/>
<path d="M7.12666 101.86C7.07466 102.264 6.99466 102.656 6.87466 103.036C6.84666 103.128 6.81065 103.224 6.77865 103.316C6.74665 103.408 6.70665 103.5 6.67065 103.592C6.59865 103.772 6.51066 103.948 6.42266 104.124C6.10266 104.724 5.68665 105.276 5.20665 105.744C4.04665 106.892 2.46266 107.612 0.722656 107.66V107.588C1.20666 107.576 1.67466 107.512 2.12666 107.4C2.95866 107.196 3.72265 106.84 4.40265 106.356C5.85065 105.32 6.86666 103.712 7.12266 101.86H7.12666Z" fill="#F9F8F4"/>
<path d="M7.16647 61.2799C7.01047 63.2879 5.95847 65.0479 4.41047 66.1479C3.73047 66.6319 2.96247 66.9879 2.13447 67.1919C1.68247 67.3039 1.21047 67.3679 0.730469 67.3799V67.3119C1.48247 67.2919 2.19047 67.1439 2.86647 66.8999C5.21447 66.0319 6.93447 63.8679 7.16647 61.2759V61.2799Z" fill="#F9F8F4"/>
<path d="M7.16248 162.016C7.03848 163.492 6.43047 164.828 5.49447 165.864C4.35047 167.132 2.72648 167.96 0.914478 168.06C0.850478 168.06 0.794469 168.068 0.730469 168.068V168C4.10247 167.912 6.83448 165.32 7.16248 162.016Z" fill="#F9F8F4"/>
<path d="M7.19055 201.696C7.19055 202.164 7.14256 202.62 7.05056 203.06C6.43856 206.02 3.84656 208.252 0.726562 208.34V208.268C0.790563 208.268 0.846559 208.268 0.910559 208.26C2.72656 208.16 4.35055 207.332 5.49055 206.064C6.53455 204.904 7.17056 203.376 7.18656 201.692L7.19055 201.696Z" fill="#F9F8F4"/>
<path d="M7.16647 182.124C6.89047 185.472 4.13047 188.104 0.730469 188.2V188.132C3.89447 188.044 6.51047 185.752 7.07847 182.732C7.11847 182.532 7.15047 182.328 7.16647 182.124Z" fill="#F9F8F4"/>
<path d="M7.17855 141.64C7.16655 141.944 7.13456 142.24 7.07456 142.528C6.50656 145.548 3.89056 147.84 0.726562 147.928V147.86C2.46256 147.812 4.05056 147.092 5.21056 145.944C5.69456 145.476 6.10656 144.924 6.42656 144.324C6.85456 143.508 7.11455 142.6 7.17855 141.636V141.64Z" fill="#F9F8F4"/>
<path d="M7.18639 81.116C7.17839 81.256 7.16639 81.396 7.15039 81.532C7.16239 81.392 7.17839 81.256 7.18639 81.116Z" fill="#F9F8F4"/>
<path d="M6.93885 82.644C6.93085 82.668 6.92685 82.688 6.92285 82.712C6.93085 82.688 6.93485 82.668 6.93885 82.644Z" fill="#F9F8F4"/>
<path d="M6.64656 83.448C6.75456 83.212 6.84255 82.964 6.91855 82.708C6.49855 84.168 5.60256 85.428 4.39456 86.288C4.31456 86.344 4.23056 86.4 4.15056 86.456C4.07056 86.508 3.98656 86.56 3.89856 86.612C3.81456 86.664 3.72656 86.712 3.63856 86.756C3.55056 86.804 3.46256 86.848 3.37456 86.888C3.28256 86.932 3.19455 86.972 3.10255 87.008C3.01055 87.048 2.91856 87.084 2.82256 87.12C2.73056 87.152 2.63456 87.188 2.53856 87.216C2.44256 87.244 2.34656 87.276 2.24656 87.3C2.05056 87.352 1.85055 87.396 1.65455 87.428C1.50255 87.452 1.34656 87.476 1.19456 87.492C1.03856 87.508 0.886563 87.516 0.726562 87.52V87.452C3.38656 87.38 5.65056 85.752 6.64656 83.444V83.448Z" fill="#F9F8F4"/>
<path d="M7.09891 81.9079C7.09891 81.9279 7.09091 81.9519 7.08691 81.9719C7.11091 81.8279 7.13891 81.6839 7.15491 81.5359C7.13891 81.6599 7.12291 81.7879 7.09891 81.9079Z" fill="#F9F8F4"/>
<path d="M202.791 47.1519V47.2559C202.539 47.2559 202.295 47.2319 202.055 47.2039C202.139 47.2039 202.219 47.2038 202.311 47.1958C202.403 47.1878 202.495 47.1799 202.587 47.1719H202.595C202.595 47.1719 202.631 47.1719 202.647 47.1719C202.663 47.1719 202.675 47.1719 202.699 47.1719C202.715 47.1719 202.723 47.1719 202.747 47.1639C202.767 47.1639 202.779 47.1639 202.795 47.1559L202.791 47.1519Z" fill="#F9F8F4"/>
<path d="M202.791 67.3201V67.388C201.747 67.372 200.759 67.1161 199.883 66.6681C197.723 65.5721 196.243 63.332 196.243 60.748C196.243 60.836 196.251 60.92 196.255 61.008C196.279 61.58 196.379 62.1401 196.543 62.6641C197.379 65.3361 199.859 67.284 202.791 67.324V67.3201Z" fill="#F9F8F4"/>
<path d="M196.247 80.9919C196.247 81.1119 196.255 81.2279 196.263 81.3479C196.255 81.2319 196.247 81.1119 196.247 80.9919Z" fill="#F9F8F4"/>
<path d="M202.791 87.46V87.5281C202.575 87.5281 202.359 87.508 202.151 87.488C202.139 87.488 202.127 87.488 202.115 87.488C201.915 87.464 201.719 87.4321 201.527 87.3921C201.055 87.2921 200.599 87.144 200.171 86.948C200.099 86.916 200.023 86.8801 199.955 86.8441C199.871 86.8041 199.787 86.7601 199.703 86.7161C199.627 86.6761 199.547 86.632 199.475 86.584C199.403 86.544 199.339 86.5001 199.267 86.4561C199.195 86.4121 199.127 86.3641 199.055 86.3161C199.027 86.2921 198.991 86.2721 198.963 86.2441C198.899 86.2001 198.839 86.152 198.775 86.1C198.695 86.036 198.615 85.976 198.543 85.908C198.467 85.84 198.387 85.772 198.311 85.696C198.239 85.628 198.171 85.56 198.103 85.488C198.031 85.416 197.967 85.3401 197.899 85.2681C197.831 85.1921 197.767 85.112 197.703 85.036C197.639 84.96 197.583 84.876 197.519 84.796C196.807 83.816 196.355 82.6321 196.263 81.3521C196.343 82.3401 196.635 83.264 197.099 84.084C197.367 84.564 197.691 85.008 198.075 85.396C199.255 86.648 200.931 87.436 202.787 87.46H202.791Z" fill="#F9F8F4"/>
<path d="M202.791 107.592V107.664C200.295 107.628 198.131 106.216 197.023 104.148C196.763 103.652 196.559 103.128 196.427 102.572C196.355 102.276 196.307 101.98 196.279 101.672C196.527 103.948 197.927 105.88 199.883 106.872C200.759 107.32 201.747 107.576 202.791 107.592Z" fill="#F9F8F4"/>
<path d="M202.791 127.732V127.8C201.131 127.776 199.623 127.148 198.471 126.12V126.112C197.171 124.952 196.33 123.3 196.25 121.444C196.434 124.916 199.287 127.676 202.791 127.732Z" fill="#F9F8F4"/>
<path d="M202.791 147.868V147.936C199.167 147.884 196.243 144.932 196.243 141.292C196.251 141.8 196.315 142.3 196.427 142.78C196.559 143.336 196.767 143.86 197.023 144.356C198.131 146.42 200.291 147.836 202.791 147.872V147.868Z" fill="#F9F8F4"/>
<path d="M202.791 168.004V168.072C199.483 168.02 196.758 165.556 196.31 162.356C196.282 162.16 196.258 161.96 196.25 161.76C196.362 163.572 197.194 165.188 198.463 166.32V166.328C199.618 167.352 201.126 167.984 202.786 168.008L202.791 168.004Z" fill="#F9F8F4"/>
<path d="M202.791 188.14V188.208C202.007 188.196 201.247 188.048 200.547 187.784H200.531C200.079 187.608 199.643 187.38 199.235 187.112C198.107 186.372 197.227 185.304 196.719 184.04C196.447 183.352 196.275 182.612 196.247 181.836C196.423 185.32 199.279 188.088 202.787 188.14H202.791Z" fill="#F9F8F4"/>
<path d="M202.791 208.276V208.348C202.575 208.348 202.367 208.328 202.155 208.308C201.907 208.284 201.663 208.24 201.427 208.188C201.343 208.168 201.259 208.148 201.171 208.124C200.995 208.076 200.815 208.02 200.647 207.96C200.551 207.928 200.459 207.888 200.367 207.848C200.295 207.824 200.227 207.788 200.155 207.76C200.039 207.708 199.931 207.652 199.819 207.592C199.743 207.552 199.663 207.512 199.591 207.472C199.571 207.46 199.555 207.448 199.535 207.44C199.455 207.392 199.375 207.344 199.299 207.292C199.227 207.248 199.151 207.196 199.083 207.148C199.059 207.132 199.035 207.116 199.011 207.1C198.943 207.048 198.875 206.996 198.807 206.944C198.731 206.884 198.651 206.824 198.575 206.756C198.427 206.628 198.279 206.492 198.139 206.352C198.067 206.28 197.999 206.208 197.935 206.136C197.867 206.06 197.803 205.984 197.739 205.908C196.919 204.908 196.383 203.66 196.267 202.292C196.279 202.384 196.291 202.476 196.303 202.564C196.751 205.764 199.471 208.228 202.783 208.28L202.791 208.276Z" fill="#F9F8F4"/>
<path d="M196.242 20.472C196.242 20.584 196.25 20.688 196.254 20.796C196.278 21.368 196.378 21.928 196.542 22.452C197.378 25.124 199.858 27.072 202.79 27.112V33.96C199.166 34.016 196.242 36.968 196.242 40.608C196.242 41.792 196.554 42.908 197.102 43.872C197.37 44.352 197.694 44.796 198.078 45.184C199.098 46.264 200.494 47.004 202.05 47.2C202.294 47.228 202.538 47.248 202.786 47.252V54.032C202.57 54.032 202.362 54.048 202.154 54.068C202.138 54.068 202.126 54.068 202.11 54.076C201.898 54.1 201.69 54.136 201.482 54.18C201.198 54.24 200.918 54.32 200.65 54.416C200.574 54.444 200.494 54.472 200.422 54.504C200.398 54.512 200.378 54.524 200.354 54.528C200.282 54.556 200.214 54.588 200.143 54.62C200.07 54.648 200.002 54.684 199.934 54.716C199.874 54.744 199.818 54.776 199.766 54.804C199.602 54.892 199.446 54.984 199.29 55.084C199.214 55.132 199.139 55.18 199.07 55.232C198.99 55.288 198.906 55.348 198.83 55.408C198.75 55.468 198.674 55.528 198.598 55.596C198.526 55.656 198.45 55.72 198.378 55.792C198.306 55.86 198.234 55.928 198.162 56C198.022 56.14 197.89 56.284 197.762 56.44C196.838 57.548 196.274 58.956 196.238 60.5C196.238 60.58 196.238 60.664 196.238 60.744C196.238 63.332 197.722 65.568 199.878 66.664C200.754 67.112 201.742 67.368 202.786 67.384V74.164C202.57 74.164 202.354 74.184 202.146 74.204C202.038 74.216 201.93 74.228 201.83 74.248C201.746 74.26 201.662 74.272 201.578 74.292C201.458 74.316 201.334 74.344 201.214 74.376C201.114 74.4 201.014 74.428 200.914 74.46C200.814 74.488 200.718 74.524 200.622 74.56C200.526 74.592 200.43 74.632 200.334 74.672C200.238 74.708 200.146 74.752 200.054 74.796C199.962 74.836 199.87 74.884 199.782 74.932C199.69 74.98 199.602 75.028 199.514 75.084C199.442 75.124 199.374 75.164 199.302 75.212C199.186 75.284 199.078 75.364 198.966 75.444C198.895 75.492 198.83 75.544 198.762 75.6C198.602 75.72 198.454 75.856 198.306 76C197.034 77.204 196.238 78.916 196.238 80.812V80.88C196.238 82.34 196.71 83.692 197.514 84.792C197.57 84.872 197.634 84.956 197.698 85.032C197.758 85.112 197.818 85.192 197.895 85.264C197.954 85.34 198.022 85.416 198.098 85.484C198.166 85.556 198.234 85.624 198.306 85.692C198.382 85.764 198.462 85.836 198.538 85.904C198.61 85.976 198.691 86.036 198.77 86.096C198.831 86.148 198.89 86.196 198.958 86.24C198.986 86.264 199.022 86.288 199.05 86.312C199.122 86.36 199.19 86.408 199.262 86.452C199.33 86.5 199.398 86.54 199.471 86.58C199.542 86.628 199.622 86.672 199.698 86.712C199.778 86.756 199.866 86.8 199.95 86.84C200.022 86.876 200.094 86.912 200.166 86.944C200.598 87.14 201.05 87.288 201.522 87.388C201.714 87.428 201.91 87.46 202.11 87.484C202.126 87.484 202.134 87.484 202.146 87.484C202.358 87.508 202.57 87.52 202.786 87.524V94.304C200.438 94.336 198.382 95.592 197.226 97.46C196.646 98.404 196.29 99.5 196.246 100.676C196.246 100.768 196.238 100.856 196.238 100.948V101.016C196.238 101.088 196.238 101.16 196.246 101.228C196.246 101.376 196.258 101.524 196.274 101.668C196.298 101.976 196.35 102.272 196.422 102.568C196.554 103.124 196.762 103.648 197.018 104.144C198.126 106.208 200.286 107.624 202.786 107.66V114.436C199.73 114.488 197.174 116.592 196.446 119.432C196.342 119.856 196.274 120.3 196.25 120.752V120.788C196.242 120.888 196.238 120.984 196.238 121.084V121.152C196.238 121.252 196.238 121.348 196.246 121.444C196.326 123.3 197.17 124.952 198.462 126.112V126.12C199.618 127.144 201.126 127.776 202.786 127.8V134.58C199.254 134.632 196.386 137.44 196.246 140.952C196.246 141.044 196.238 141.132 196.238 141.224V141.292C196.238 144.932 199.162 147.884 202.786 147.936V154.712C202.702 154.712 202.618 154.712 202.526 154.728C201.114 154.8 199.826 155.316 198.786 156.132C197.318 157.284 196.342 159.04 196.246 161.024C196.238 161.144 196.234 161.268 196.234 161.392V161.424C196.234 161.536 196.234 161.644 196.246 161.756C196.254 161.96 196.274 162.16 196.306 162.352C196.754 165.552 199.474 168.016 202.786 168.068V174.848C200.498 174.88 198.49 176.072 197.318 177.868C197.014 178.32 196.774 178.816 196.598 179.344C196.41 179.88 196.294 180.444 196.254 181.028C196.254 181.036 196.254 181.044 196.254 181.048C196.246 181.124 196.242 181.208 196.238 181.284C196.238 181.376 196.238 181.468 196.238 181.56C196.238 181.652 196.238 181.74 196.246 181.828C196.274 182.604 196.447 183.344 196.718 184.032C197.227 185.296 198.106 186.364 199.234 187.1C199.638 187.372 200.074 187.6 200.53 187.772H200.546C201.242 188.04 202.002 188.188 202.79 188.2V194.98C199.423 195.032 196.666 197.58 196.286 200.86C196.266 201.028 196.254 201.204 196.25 201.38C196.25 201.44 196.25 201.5 196.242 201.56V201.688C196.242 201.744 196.242 201.804 196.242 201.856C196.242 201.928 196.242 202 196.254 202.068C196.334 203.516 196.882 204.84 197.746 205.892C197.806 205.968 197.87 206.048 197.942 206.12C198.007 206.192 198.074 206.268 198.146 206.336C198.286 206.48 198.43 206.616 198.582 206.74C198.658 206.808 198.734 206.868 198.814 206.928C198.882 206.984 198.947 207.036 199.018 207.084C199.042 207.1 199.062 207.116 199.09 207.132C199.162 207.184 199.234 207.232 199.306 207.276C199.382 207.332 199.462 207.38 199.542 207.424C199.562 207.436 199.578 207.448 199.598 207.456C199.67 207.5 199.75 207.54 199.826 207.576C199.938 207.636 200.046 207.692 200.162 207.744C200.234 207.776 200.302 207.808 200.374 207.832C200.466 207.872 200.558 207.908 200.654 207.944C200.822 208.004 201.002 208.06 201.178 208.108C201.262 208.132 201.346 208.152 201.434 208.172C201.67 208.228 201.914 208.268 202.162 208.292C202.374 208.316 202.582 208.328 202.798 208.332V215.108C202.698 215.108 202.586 215.116 202.49 215.124C202.134 215.148 201.794 215.196 201.458 215.272C200.954 215.384 200.466 215.552 200.01 215.772C197.794 216.852 196.258 219.12 196.258 221.756C196.258 222.628 196.43 223.46 196.738 224.228C197.246 225.492 198.126 226.56 199.254 227.296C199.658 227.568 200.094 227.796 200.55 227.968H200.566C201.262 228.236 202.022 228.384 202.81 228.396V235.244C201.174 235.268 199.686 235.884 198.542 236.884C198.13 237.24 197.766 237.648 197.462 238.096C196.71 239.168 196.262 240.484 196.262 241.892C196.262 245.532 199.186 248.48 202.81 248.54V255.5C202.81 255.5 202.794 255.5 202.786 255.5C202.714 255.492 202.634 255.484 202.558 255.476C202.502 255.476 202.442 255.468 202.39 255.464C202.278 255.456 202.166 255.452 202.05 255.452C201.95 255.452 201.842 255.452 201.746 255.46C201.578 255.468 201.406 255.484 201.246 255.5C198.762 255.804 196.702 257.472 195.842 259.736C195.638 260.268 195.503 260.836 195.442 261.424C195.423 261.596 195.41 261.78 195.41 261.956H188.558C188.486 258.56 185.874 255.796 182.546 255.48C182.442 255.468 182.33 255.46 182.222 255.456C182.122 255.456 182.014 255.448 181.914 255.448C181.742 255.448 181.574 255.456 181.41 255.468C181.338 255.476 181.254 255.48 181.186 255.492C178.882 255.744 176.934 257.172 175.95 259.164C175.698 259.672 175.514 260.22 175.402 260.792C175.33 261.172 175.282 261.56 175.278 261.956H168.426C168.354 258.64 165.862 255.924 162.65 255.512C162.546 255.496 162.442 255.488 162.338 255.48C162.194 255.464 162.054 255.456 161.91 255.456C161.87 255.456 161.822 255.456 161.786 255.456H161.754C161.662 255.456 161.574 255.456 161.482 255.464C161.294 255.476 161.11 255.492 160.922 255.516C160.858 255.528 160.798 255.536 160.734 255.544C158.854 255.844 157.242 256.924 156.246 258.444V258.452C155.93 258.92 155.682 259.424 155.498 259.964C155.286 260.592 155.166 261.264 155.15 261.96H148.29C148.222 258.452 145.434 255.62 141.95 255.464C141.854 255.464 141.75 255.456 141.646 255.456H141.618C139.699 255.468 137.974 256.288 136.758 257.6C136.39 258.004 136.07 258.46 135.802 258.948C135.306 259.848 135.026 260.872 135.006 261.964H128.154C128.086 258.776 125.778 256.144 122.742 255.576C122.546 255.536 122.346 255.504 122.142 255.488C122.038 255.476 121.926 255.468 121.818 255.464C121.718 255.464 121.614 255.456 121.514 255.456C121.414 255.456 121.31 255.456 121.21 255.464C121.126 255.464 121.05 255.472 120.974 255.48C120.886 255.488 120.798 255.496 120.71 255.504C120.546 255.524 120.382 255.552 120.218 255.584C120.13 255.604 120.042 255.62 119.954 255.64C119.89 255.656 119.834 255.672 119.771 255.688C118.99 255.9 118.27 256.248 117.634 256.704C117.194 257.02 116.798 257.392 116.446 257.8C115.486 258.928 114.902 260.38 114.866 261.96H108.014C107.942 258.604 105.39 255.86 102.118 255.5C102.03 255.488 101.946 255.48 101.858 255.476H101.842C101.77 255.468 101.702 255.464 101.634 255.464C101.542 255.456 101.458 255.456 101.37 255.456C101.262 255.456 101.154 255.456 101.054 255.464C100.942 255.464 100.842 255.476 100.738 255.488C100.53 255.508 100.322 255.536 100.126 255.572C99.7225 255.648 99.3345 255.764 98.9585 255.912C98.4585 256.108 97.9905 256.36 97.5585 256.664C95.8905 257.836 94.7825 259.772 94.7345 261.96H87.8785C87.8065 258.564 85.1945 255.796 81.8705 255.484C81.7625 255.472 81.6585 255.464 81.5465 255.46C81.4425 255.46 81.3425 255.452 81.2385 255.452C81.1545 255.452 81.0705 255.452 80.9825 255.452C80.8425 255.452 80.7065 255.464 80.5745 255.48C80.4985 255.488 80.4305 255.496 80.3625 255.504C79.9585 255.556 79.5705 255.648 79.1985 255.768C76.5705 256.62 74.6625 259.056 74.5985 261.952H67.7505C67.6905 259.104 65.8385 256.7 63.2785 255.82C63.1985 255.792 63.1145 255.764 63.0305 255.74C62.9945 255.724 62.9545 255.716 62.9145 255.704C62.8465 255.684 62.7825 255.668 62.7145 255.652C62.3985 255.568 62.0745 255.512 61.7425 255.484C61.6785 255.476 61.6265 255.472 61.5665 255.468C61.4745 255.46 61.3745 255.456 61.2745 255.452H61.2585C61.2065 255.452 61.1505 255.452 61.1025 255.452H61.0705C60.9665 255.452 60.8665 255.452 60.7625 255.46C60.5505 255.472 60.3425 255.492 60.1305 255.524C60.1305 255.524 60.1145 255.524 60.1105 255.524C56.9505 255.992 54.5305 258.68 54.4585 261.956H47.6065C47.5625 259.896 46.5865 258.072 45.0785 256.88C44.6025 256.504 44.0625 256.192 43.4945 255.952C42.7385 255.64 41.9145 255.46 41.0425 255.452C41.0185 255.452 40.9905 255.452 40.9625 255.452C40.7345 255.452 40.5065 255.464 40.2785 255.484C40.1825 255.496 40.0905 255.508 39.9945 255.52C39.9025 255.532 39.8065 255.544 39.7145 255.564C39.6225 255.584 39.5305 255.6 39.4385 255.624C36.7945 256.248 34.7585 258.448 34.3785 261.188C34.3465 261.44 34.3225 261.696 34.3185 261.956H27.4665C27.4425 260.968 27.2105 260.032 26.8025 259.2C26.4665 258.512 26.0225 257.892 25.4865 257.364C24.3625 256.256 22.8465 255.544 21.1625 255.46C21.0465 255.46 20.9425 255.452 20.8265 255.452C20.7345 255.452 20.6425 255.452 20.5505 255.46C20.4385 255.46 20.3345 255.472 20.2265 255.484C16.8785 255.78 14.2505 258.552 14.1785 261.96H7.32649C7.31049 261.128 7.14248 260.332 6.84248 259.604C5.91848 257.32 3.76648 255.676 1.20248 255.476C1.14248 255.476 1.08249 255.468 1.02649 255.464C0.954489 255.464 0.882482 255.464 0.806482 255.456H0.750488V248.54C3.87049 248.452 6.46249 246.22 7.07449 243.26C7.16649 242.82 7.21449 242.364 7.21449 241.896C7.21449 241.668 7.20648 241.436 7.18248 241.208C6.84648 237.98 4.21049 235.444 0.938489 235.268C0.874489 235.26 0.81848 235.252 0.75448 235.252V228.396C4.34248 228.296 7.21848 225.368 7.21848 221.76C7.21848 220.908 7.06648 220.1 6.76648 219.352C6.57848 218.852 6.31848 218.384 6.01848 217.952C5.87848 217.748 5.72648 217.556 5.56648 217.372C5.55848 217.364 5.55048 217.356 5.54648 217.352C4.37048 216.02 2.65848 215.168 0.75448 215.112V208.328C3.87448 208.24 6.46648 206.008 7.07848 203.048C7.17048 202.608 7.21848 202.152 7.21848 201.684C7.21848 201.624 7.21848 201.564 7.21848 201.504C7.21848 201.432 7.21849 201.364 7.21049 201.292C7.21049 201.192 7.20249 201.092 7.18649 200.996C7.17449 200.892 7.16249 200.792 7.15049 200.692C6.88649 198.744 5.77448 197.068 4.19448 196.044C3.56248 195.636 2.85848 195.328 2.10248 195.152C1.67048 195.048 1.21848 194.988 0.75448 194.976V188.188C4.15448 188.092 6.91448 185.456 7.19048 182.112C7.21048 181.928 7.21449 181.74 7.21449 181.552V181.48C7.21449 181.328 7.21448 181.176 7.20248 181.032C6.97848 177.632 4.18649 174.932 0.750488 174.836V168.048C0.814488 168.048 0.870485 168.048 0.934485 168.04C2.75048 167.94 4.37449 167.116 5.51449 165.844C6.45049 164.808 7.05848 163.472 7.18248 161.996C7.19448 161.888 7.20248 161.784 7.20648 161.676C7.21448 161.588 7.21449 161.5 7.21449 161.408V161.34C7.21449 160.236 6.95049 159.196 6.47449 158.28C6.19449 157.736 5.83449 157.236 5.42649 156.796C4.25049 155.544 2.59849 154.748 0.750488 154.696V147.908C3.91449 147.82 6.53049 145.528 7.09849 142.508C7.15849 142.22 7.19048 141.92 7.20248 141.62C7.21048 141.5 7.21449 141.388 7.21449 141.268C7.21449 141.192 7.21449 141.116 7.21449 141.044C7.21449 140.972 7.21448 140.896 7.20648 140.824C7.01448 137.388 4.21848 134.66 0.75448 134.564V127.776C4.33848 127.68 7.20648 124.76 7.21848 121.156V121.132C7.21848 120.996 7.21848 120.86 7.20648 120.724C7.18648 120.304 7.13448 119.892 7.03448 119.5C6.34649 116.644 3.80648 114.508 0.75448 114.424V107.64C2.49048 107.592 4.07849 106.872 5.23849 105.724C5.72249 105.256 6.13448 104.704 6.45448 104.104C6.54248 103.932 6.62648 103.752 6.70248 103.572C6.74248 103.48 6.77849 103.388 6.81049 103.296C6.84649 103.204 6.88248 103.112 6.90648 103.016C7.07448 102.484 7.17849 101.924 7.21049 101.344C7.21849 101.228 7.22249 101.116 7.22249 100.996C7.22249 100.876 7.22249 100.772 7.21449 100.66C7.21449 100.548 7.20248 100.444 7.19048 100.336C6.89848 97 4.14648 94.376 0.758484 94.288V87.5C0.918484 87.5 1.07049 87.484 1.22649 87.472C1.38249 87.456 1.53449 87.436 1.68649 87.408C1.89049 87.376 2.08648 87.336 2.27848 87.28C2.37848 87.256 2.47448 87.228 2.57048 87.196C2.66648 87.172 2.76248 87.136 2.85448 87.1C2.95048 87.068 3.04248 87.028 3.13449 86.988C3.22649 86.952 3.31848 86.912 3.40648 86.868C3.49848 86.828 3.58648 86.784 3.67048 86.736C3.75848 86.692 3.84248 86.644 3.93048 86.592C4.01448 86.544 4.09848 86.492 4.18248 86.436C4.26648 86.384 4.34649 86.332 4.42649 86.268C6.05849 85.108 7.14249 83.232 7.21449 81.096C7.21449 81.044 7.21449 80.988 7.21449 80.932V80.792C7.21449 80.704 7.21448 80.616 7.20648 80.532C7.18248 79.804 7.03848 79.112 6.79048 78.464C6.72248 78.272 6.64248 78.088 6.55448 77.908C6.42648 77.64 6.27849 77.38 6.11449 77.132C6.11449 77.132 6.10648 77.132 6.10648 77.124C5.99848 76.96 5.88248 76.796 5.75448 76.64C5.63048 76.484 5.49448 76.336 5.35848 76.192C5.29048 76.12 5.21848 76.048 5.14648 75.98C5.07448 75.908 5.00249 75.844 4.92649 75.78C4.85449 75.708 4.77449 75.648 4.69849 75.588C4.62649 75.524 4.55049 75.468 4.47449 75.416C4.38249 75.348 4.29049 75.288 4.19849 75.228C4.12249 75.172 4.04249 75.124 3.96249 75.08C3.87849 75.024 3.79048 74.976 3.70248 74.932C3.61848 74.88 3.53049 74.836 3.43849 74.796C3.34649 74.752 3.25449 74.708 3.16249 74.672C3.07449 74.632 2.98248 74.6 2.89048 74.564C2.61848 74.46 2.33849 74.376 2.05049 74.308C1.95049 74.284 1.84648 74.264 1.74248 74.248C1.65848 74.228 1.57448 74.22 1.48248 74.208C1.35448 74.184 1.22249 74.176 1.08649 74.164C0.974487 74.152 0.866488 74.148 0.750488 74.144V67.356C1.23449 67.344 1.70248 67.28 2.15448 67.168C2.98648 66.964 3.75048 66.608 4.43048 66.124C5.97848 65.02 7.03049 63.26 7.18649 61.256C7.19849 61.156 7.20248 61.056 7.20648 60.956C7.21448 60.88 7.21449 60.8 7.21449 60.72C7.21449 60.604 7.21448 60.496 7.20648 60.384C7.20648 60.276 7.19448 60.172 7.18248 60.064C7.12648 59.384 6.97049 58.736 6.72249 58.132C5.75049 55.768 3.45049 54.088 0.750488 54.016V47.228C1.50649 47.208 2.22648 47.06 2.89448 46.808C2.96648 46.784 3.03448 46.76 3.10248 46.732C3.25448 46.668 3.40248 46.604 3.54648 46.532C4.94248 45.836 6.05449 44.66 6.67449 43.224C6.89049 42.74 7.04249 42.22 7.12649 41.68C7.19449 41.324 7.21848 40.96 7.21848 40.588C7.21848 36.976 4.34648 34.044 0.75448 33.944V27.088C1.50648 27.068 2.21448 26.92 2.89048 26.676C5.41848 25.744 7.21848 23.308 7.21848 20.452C7.21848 19.56 7.04649 18.704 6.72649 17.928C5.75449 15.564 3.45448 13.884 0.75448 13.812V6.97599C0.85448 6.97599 0.946488 6.97599 1.05049 6.96799C1.15449 6.95999 1.26248 6.95199 1.37048 6.94399C4.72248 6.59999 7.34248 3.76799 7.34248 0.323987C7.34248 0.259987 7.33048 0.20399 7.33048 0.13999H14.1825C14.1825 0.20399 14.1825 0.259987 14.1825 0.323987C14.1825 3.90399 17.0065 6.82399 20.5505 6.96799C20.6425 6.96799 20.7425 6.97599 20.8345 6.97599H20.8945C24.5385 6.94399 27.4785 3.97199 27.4785 0.323987C27.4785 0.259987 27.4665 0.20399 27.4665 0.13999H34.3265C34.3265 0.20399 34.3145 0.259987 34.3145 0.323987C34.3145 0.659987 34.3425 0.987989 34.3905 1.30799C34.8425 4.39999 37.4345 6.79599 40.6065 6.96799C40.7225 6.96799 40.8465 6.97599 40.9625 6.97599H40.9865C41.0985 6.97599 41.1985 6.97599 41.3105 6.96399C41.3825 6.96399 41.4545 6.95599 41.5265 6.94799C41.6025 6.94799 41.6745 6.93599 41.7465 6.92399C41.8585 6.90799 41.9625 6.89599 42.0785 6.87599C42.1905 6.85599 42.2985 6.83599 42.4025 6.80799C43.7145 6.52399 44.8785 5.84799 45.7665 4.91199C46.9065 3.71999 47.6105 2.09999 47.6105 0.319989C47.6105 0.255989 47.6025 0.199986 47.6025 0.135986H54.4585C54.4585 0.199986 54.4465 0.255989 54.4465 0.319989C54.4465 3.76399 57.0625 6.59599 60.4185 6.93999C60.4985 6.94799 60.5825 6.95599 60.6625 6.95999C60.7065 6.95999 60.7505 6.96799 60.7905 6.96799C60.8905 6.96799 60.9945 6.97599 61.0985 6.97599C61.2025 6.97599 61.3105 6.97599 61.4185 6.96399C61.5305 6.96399 61.6345 6.95199 61.7425 6.93999C61.7545 6.93999 61.7665 6.93999 61.7745 6.93999C62.1185 6.90799 62.4505 6.84799 62.7745 6.76399C63.4265 6.59599 64.0465 6.31999 64.6105 5.96799C66.4905 4.79599 67.7465 2.70799 67.7465 0.327991C67.7465 0.263991 67.7345 0.207988 67.7305 0.143988H74.5825C74.5825 0.207988 74.5825 0.263991 74.5825 0.327991C74.5825 2.96399 76.1225 5.24399 78.3505 6.32799C78.5025 6.39999 78.6545 6.47199 78.8105 6.53199C78.8905 6.55999 78.9705 6.59199 79.0545 6.61999C79.1705 6.65999 79.2865 6.69599 79.4065 6.73199C79.5665 6.77599 79.7225 6.81599 79.8865 6.85199C80.0025 6.87599 80.1185 6.89599 80.2385 6.91599C80.3305 6.92799 80.4225 6.93999 80.5145 6.94799C80.5305 6.94799 80.5385 6.94799 80.5545 6.94799C80.6665 6.95999 80.7705 6.96799 80.8865 6.97199H80.8985C80.9985 6.97199 81.1025 6.97999 81.2065 6.97999H81.2345C81.3465 6.97999 81.4545 6.97999 81.5545 6.97199C85.0785 6.80399 87.8865 3.89199 87.8865 0.327991C87.8865 0.263991 87.8745 0.207988 87.8745 0.143988H94.7345C94.7345 0.207988 94.7225 0.263991 94.7225 0.327991C94.7225 2.60799 95.8705 4.61999 97.6225 5.81599C98.0545 6.11999 98.5265 6.35999 99.0305 6.55199C99.3465 6.67199 99.6705 6.76399 100.006 6.83599C100.018 6.83599 100.03 6.84399 100.046 6.84799C100.198 6.87599 100.354 6.90799 100.514 6.92399C100.69 6.94799 100.874 6.96399 101.058 6.97199C101.162 6.97199 101.266 6.97999 101.366 6.97999C101.466 6.97999 101.574 6.97999 101.674 6.97199C105.202 6.80799 108.014 3.89599 108.014 0.327991C108.014 0.263991 108.002 0.207988 107.998 0.143988H114.854C114.854 0.207988 114.846 0.263991 114.846 0.327991C114.846 1.78399 115.318 3.13599 116.106 4.23199C116.426 4.67199 116.794 5.06399 117.21 5.41199C117.838 5.94799 118.57 6.36399 119.37 6.63199C119.378 6.63199 119.382 6.63199 119.394 6.63999C119.535 6.68799 119.682 6.73199 119.83 6.76799C119.83 6.76799 119.842 6.76799 119.846 6.76799C119.89 6.77999 119.938 6.79199 119.982 6.79599C120.102 6.82399 120.226 6.85199 120.35 6.87199C120.362 6.87199 120.374 6.87199 120.382 6.87999C120.55 6.90399 120.722 6.93199 120.894 6.94799C120.994 6.95599 121.09 6.96399 121.198 6.96799C121.298 6.96799 121.398 6.97599 121.502 6.97599C121.606 6.97599 121.714 6.97599 121.814 6.96799C125.334 6.80399 128.146 3.89199 128.146 0.323987C128.146 0.259987 128.146 0.20399 128.146 0.13999H134.998C134.998 0.20399 134.998 0.259987 134.998 0.323987C134.998 1.05999 135.118 1.77199 135.346 2.43599C135.526 2.98399 135.774 3.49999 136.086 3.97199C136.966 5.31599 138.318 6.31999 139.906 6.74799C139.922 6.74799 139.934 6.75599 139.95 6.75999H139.962C140.142 6.81199 140.33 6.84799 140.522 6.87999C140.618 6.89999 140.71 6.91599 140.81 6.92799C140.894 6.93599 140.974 6.94399 141.066 6.95199C141.158 6.95999 141.246 6.96799 141.338 6.97599C141.43 6.97599 141.522 6.98399 141.614 6.98399H141.643C145.322 6.98399 148.298 4.00399 148.298 0.331989C148.298 0.267989 148.282 0.211992 148.282 0.147992H155.146C155.146 0.211992 155.13 0.267989 155.13 0.331989C155.13 0.451989 155.13 0.567988 155.143 0.687988C155.174 1.32399 155.294 1.93599 155.498 2.51199C156.21 4.56399 157.898 6.15999 159.998 6.74399C160.038 6.75599 160.074 6.76399 160.114 6.77199C160.19 6.79599 160.278 6.81199 160.362 6.83199C160.466 6.85599 160.566 6.87999 160.671 6.89599C160.77 6.91599 160.874 6.92799 160.978 6.93999C161.062 6.95199 161.154 6.95999 161.242 6.96399C161.322 6.97199 161.402 6.97599 161.474 6.97999C161.582 6.97999 161.682 6.98799 161.782 6.98799C161.866 6.98799 161.958 6.98799 162.05 6.97999C165.594 6.83999 168.434 3.91599 168.434 0.335986C168.434 0.271986 168.426 0.21599 168.422 0.15199H175.278C175.278 0.21599 175.27 0.271986 175.27 0.335986C175.27 0.599986 175.286 0.859989 175.31 1.11999C175.69 4.32399 178.334 6.82799 181.602 6.98399C181.706 6.98399 181.814 6.99199 181.919 6.99199C182.11 6.99199 182.31 6.98399 182.502 6.96799C182.514 6.96799 182.526 6.96799 182.538 6.96799C182.862 6.93999 183.182 6.88399 183.494 6.80399C183.59 6.77999 183.694 6.75199 183.79 6.72399C185.638 6.18799 187.146 4.86799 187.946 3.15599C188.35 2.30399 188.57 1.34799 188.57 0.343988C188.57 0.279988 188.57 0.223991 188.57 0.159991H195.422C195.422 0.223991 195.41 0.279988 195.41 0.343988C195.41 3.30799 197.346 5.81199 200.022 6.67599C200.054 6.68799 200.086 6.69999 200.114 6.70399C200.23 6.73999 200.346 6.77199 200.466 6.79999C200.63 6.83999 200.798 6.87599 200.971 6.90399C201.074 6.92799 201.186 6.93999 201.294 6.95199C201.546 6.97999 201.802 6.99599 202.062 6.99599C202.154 6.99599 202.246 6.99599 202.342 6.98799C202.434 6.97999 202.526 6.97199 202.618 6.96399H202.626C202.626 6.96399 202.662 6.96399 202.678 6.96399C202.694 6.96399 202.706 6.96399 202.73 6.96399C202.746 6.96399 202.754 6.96399 202.778 6.95599C202.798 6.95599 202.81 6.95599 202.826 6.94799V13.832C199.202 13.884 196.278 16.84 196.278 20.476L196.242 20.472Z" fill="#F9F8F4"/>
<path d="M99.7664 128.844C92.4264 128.844 84.9384 128.1 77.3024 126.612C69.6624 125.124 63.9584 123.124 60.1904 120.612C60.7184 117.572 60.9824 114.712 60.9824 112.032C60.9824 109.352 60.7184 106.264 60.1904 102.756C62.1064 105.004 65.2504 107.104 69.6144 109.056C73.9784 111.008 78.8904 112.56 84.3424 113.72C89.7984 114.876 94.9384 115.456 99.7664 115.456C105.586 115.456 110.066 114.632 113.206 112.976C116.346 111.324 117.918 108.944 117.918 105.832C117.918 101.996 115.834 99.304 111.666 97.748C107.502 96.196 101.782 95.416 94.5064 95.416C92.9184 95.416 91.0864 95.5 89.0024 95.664C86.9224 95.832 84.8184 96.012 82.7024 96.212L75.1624 96.808C75.4264 94.892 75.5584 92.908 75.5584 90.856C75.5584 88.804 75.4264 86.856 75.1624 85.004L76.8504 85.204C78.7664 85.404 80.8664 85.6 83.1504 85.8C85.4304 86 87.8944 86.096 90.5384 86.096C99.5984 86.096 105.946 85.12 109.586 83.172C113.222 81.224 115.042 78.592 115.042 75.288C115.042 71.984 113.522 69.816 110.478 68.592C107.434 67.368 103.37 66.756 98.2784 66.756C91.1384 66.756 84.3904 67.484 78.0424 68.94C71.6944 70.396 65.9744 72.808 60.8824 76.18C61.6104 73.468 61.9904 70.492 62.0224 67.252C62.0544 64.012 61.7384 61.036 61.0784 58.324C66.4344 56.34 72.6984 54.772 79.8744 53.612C87.0504 52.456 93.7784 51.876 100.062 51.876C111.37 51.876 120.278 53.496 126.794 56.736C133.306 59.976 136.562 64.772 136.562 71.12C136.562 74.756 135.502 77.864 133.386 80.444C131.27 83.024 128.59 85.04 125.35 86.496C122.11 87.952 118.77 88.844 115.33 89.176V90.764C123.662 91.296 130.21 93.064 134.97 96.072C139.73 99.084 142.11 103.232 142.11 108.52C142.11 115.66 138.01 120.836 129.81 124.044C121.61 127.252 111.59 128.856 99.7544 128.856L99.7664 128.844Z" fill="#FF5729"/>
<path d="M101.154 224.748C92.5585 224.748 85.0705 223.936 78.6865 222.316C72.3065 220.696 67.3785 218.316 63.9065 215.176C60.4345 212.036 58.6985 208.28 58.6985 203.916C58.6985 200.544 59.6585 197.584 61.5745 195.04C63.4905 192.496 66.3345 190.476 70.1065 188.988C73.8745 187.5 78.5025 186.592 83.9945 186.26V184.672C78.2425 184.076 73.4465 182.54 69.6105 180.06C65.7745 177.58 63.8585 173.696 63.8585 168.404C63.8585 164.108 65.3625 160.42 68.3705 157.344C71.3785 154.268 75.6745 151.92 81.2665 150.3C86.8545 148.68 93.4825 147.868 101.154 147.868C108.826 147.868 115.454 148.68 121.042 150.3C126.63 151.92 130.926 154.268 133.938 157.344C136.946 160.42 138.45 164.104 138.45 168.404C138.45 173.696 136.534 177.58 132.698 180.06C128.862 182.54 124.066 184.076 118.314 184.672V186.26C123.802 186.592 128.43 187.5 132.202 188.988C135.974 190.476 138.814 192.492 140.734 195.04C142.65 197.588 143.61 200.544 143.61 203.916C143.61 208.28 141.874 212.036 138.402 215.176C134.93 218.316 130.006 220.696 123.622 222.316C117.242 223.936 109.75 224.748 101.158 224.748H101.154ZM101.154 211.952C104.99 211.952 108.446 211.504 111.518 210.612C114.594 209.72 116.99 208.416 118.71 206.696C120.43 204.976 121.29 202.96 121.29 200.644C121.29 197.208 119.422 194.48 115.686 192.46C111.95 190.444 107.106 189.436 101.154 189.436C97.2505 189.436 93.7785 189.88 90.7385 190.776C87.6945 191.668 85.3145 192.96 83.5985 194.644C81.8785 196.328 81.0185 198.332 81.0185 200.644C81.0185 202.956 81.8785 204.976 83.5985 206.696C85.3185 208.416 87.7145 209.72 90.7905 210.612C93.8665 211.504 97.3185 211.952 101.154 211.952ZM101.154 182.092C106.642 182.092 110.874 181.184 113.85 179.364C116.826 177.548 118.314 175.084 118.314 171.976C118.314 169.928 117.634 168.124 116.282 166.568C114.926 165.016 112.958 163.824 110.382 162.996C107.802 162.172 104.726 161.756 101.158 161.756C97.5905 161.756 94.5105 162.172 91.9345 162.996C89.3545 163.824 87.3865 165.016 86.0345 166.568C84.6785 168.124 84.0025 169.924 84.0025 171.976C84.0025 175.084 85.4905 177.548 88.4665 179.364C91.4425 181.184 95.6705 182.092 101.162 182.092H101.154Z" fill="#FF5729"/>
<path d="M28.1269 212.976C28.8229 212.976 29.4229 213.128 29.9269 213.428C30.4309 213.732 30.8149 214.172 31.0789 214.748C31.3429 215.324 31.4789 216.016 31.4789 216.816C31.4789 217.616 31.3469 218.348 31.0789 218.92C30.8149 219.492 30.4309 219.92 29.9309 220.208C29.4309 220.496 28.8309 220.64 28.1269 220.64C27.4229 220.64 26.7949 220.648 26.2389 220.66C25.6829 220.676 25.2349 220.696 24.8949 220.724C24.9469 220.412 24.9709 220.088 24.9749 219.748C24.9749 219.408 24.9509 219.096 24.8949 218.816C25.2389 218.844 25.6869 218.864 26.2389 218.88C26.7909 218.896 27.4349 218.9 28.1669 218.9C28.6269 218.9 29.0149 218.824 29.3389 218.672C29.6629 218.52 29.9069 218.288 30.0829 217.976C30.2549 217.664 30.3429 217.276 30.3429 216.812C30.3429 216.348 30.2549 215.968 30.0829 215.66C29.9109 215.348 29.6629 215.116 29.3349 214.96C29.0109 214.804 28.6229 214.728 28.1669 214.728C27.3909 214.728 26.7349 214.732 26.1989 214.744C25.6629 214.756 25.2269 214.776 24.8909 214.804C24.9429 214.492 24.9669 214.168 24.9709 213.824C24.9749 213.48 24.9469 213.172 24.8909 212.896C25.2149 212.924 25.6629 212.944 26.2429 212.956C26.8229 212.968 27.4509 212.972 28.1229 212.972L28.1269 212.976Z" fill="#FF5729"/>
<path d="M31.2587 210.904C30.5227 210.84 29.4627 210.812 28.0787 210.812C26.6947 210.812 25.6347 210.844 24.8987 210.904C24.9027 210.48 24.9067 210.084 24.9067 209.72C24.9067 209.356 24.9027 209.004 24.8907 208.664C24.8787 208.428 24.8707 208.184 24.8707 207.936C24.8707 207.688 24.8667 207.424 24.8667 207.148C24.8667 205.904 25.0187 204.988 25.3307 204.396C25.6427 203.804 26.1107 203.508 26.7427 203.508C27.2227 203.508 27.6067 203.66 27.8867 203.972C28.1707 204.28 28.3667 204.64 28.4747 205.044C28.5867 205.452 28.6387 205.824 28.6387 206.164H28.7747C28.9147 205.396 29.2307 204.78 29.7187 204.316C30.2067 203.852 30.7227 203.492 31.2587 203.24V205.676C30.7427 205.728 30.3267 205.844 30.0067 206.024C29.6867 206.204 29.4427 206.464 29.2787 206.804C29.1107 207.144 29.0027 207.588 28.9507 208.136C28.9347 208.272 28.9227 208.424 28.9187 208.588C28.9147 208.756 28.9107 208.924 28.9107 209.092C29.7347 209.068 30.2067 209.056 30.3187 209.048C30.4867 209.044 30.6507 209.032 30.8027 209.02C30.9547 209.008 31.1067 208.992 31.2627 208.98V210.904H31.2587ZM27.8547 209.1L27.8787 208.7C27.8907 208.484 27.9027 208.256 27.9107 208.008C27.9227 207.764 27.9267 207.52 27.9267 207.284C27.9267 206.864 27.8907 206.516 27.8147 206.232C27.7387 205.948 27.6307 205.736 27.4787 205.592C27.3307 205.448 27.1427 205.376 26.9147 205.376C26.5907 205.376 26.3587 205.536 26.2107 205.856C26.0627 206.176 25.9907 206.628 25.9907 207.208C25.9907 207.424 25.9907 207.636 25.9947 207.848C25.9947 208.06 26.0027 208.264 26.0147 208.456L26.0227 209.068C26.3067 209.08 26.5987 209.088 26.8987 209.092C27.2027 209.096 27.5147 209.1 27.8467 209.1H27.8547Z" fill="#FF5729"/>
<path d="M28.1269 194.124C28.8229 194.124 29.4229 194.276 29.9269 194.576C30.4309 194.88 30.8149 195.32 31.0789 195.896C31.3429 196.472 31.4789 197.164 31.4789 197.964C31.4789 198.764 31.3469 199.496 31.0789 200.068C30.8149 200.64 30.4309 201.068 29.9309 201.356C29.4309 201.644 28.8309 201.788 28.1269 201.788C27.4229 201.788 26.7949 201.796 26.2389 201.808C25.6829 201.824 25.2349 201.844 24.8949 201.872C24.9469 201.56 24.9709 201.236 24.9749 200.896C24.9749 200.556 24.9509 200.244 24.8949 199.964C25.2389 199.992 25.6869 200.012 26.2389 200.028C26.7909 200.044 27.4349 200.048 28.1669 200.048C28.6269 200.048 29.0149 199.972 29.3389 199.82C29.6629 199.668 29.9069 199.436 30.0829 199.124C30.2549 198.812 30.3429 198.424 30.3429 197.96C30.3429 197.496 30.2549 197.116 30.0829 196.808C29.9109 196.496 29.6629 196.264 29.3349 196.108C29.0109 195.952 28.6229 195.876 28.1669 195.876C27.3909 195.876 26.7349 195.88 26.1989 195.892C25.6629 195.904 25.2269 195.924 24.8909 195.952C24.9429 195.64 24.9669 195.316 24.9709 194.972C24.9749 194.628 24.9469 194.32 24.8909 194.044C25.2149 194.072 25.6629 194.092 26.2429 194.104C26.8229 194.116 27.4509 194.12 28.1229 194.12L28.1269 194.124Z" fill="#FF5729"/>
<path d="M31.3866 187.968C31.3866 188.908 31.2506 189.708 30.9786 190.372C30.7066 191.036 30.3186 191.54 29.8146 191.88C29.3106 192.224 28.7186 192.392 28.0426 192.392C27.3306 192.392 26.7266 192.212 26.2306 191.848C25.7346 191.488 25.3626 190.964 25.1106 190.284C24.8586 189.604 24.7346 188.788 24.7346 187.844C24.7346 187.216 24.7906 186.552 24.8986 185.848C25.0106 185.144 25.1946 184.48 25.4546 183.852C25.7786 183.896 26.0746 183.92 26.3506 183.92C26.6266 183.92 26.8666 183.9 27.0746 183.86C26.7306 184.396 26.4586 185.012 26.2546 185.708C26.0546 186.404 25.9546 187.116 25.9546 187.844C25.9546 188.416 26.0386 188.908 26.2106 189.324C26.3786 189.74 26.6226 190.056 26.9346 190.28C27.2506 190.5 27.6186 190.612 28.0426 190.612C28.4666 190.612 28.8386 190.508 29.1626 190.296C29.4866 190.088 29.7346 189.784 29.9146 189.384C30.0946 188.984 30.1826 188.512 30.1826 187.964C30.1826 187.472 30.0946 186.98 29.9226 186.488C29.7506 185.996 29.4346 185.584 28.9746 185.256C28.9746 185.476 28.9746 185.7 28.9786 185.92C28.9786 186.144 28.9906 186.364 28.9986 186.576C29.0106 187.008 29.0306 187.396 29.0586 187.748C29.0866 188.1 29.1226 188.368 29.1586 188.552C28.9586 188.512 28.7306 188.496 28.4626 188.504C28.1986 188.512 27.9426 188.54 27.6986 188.584C27.7386 187.816 27.7586 187.008 27.7586 186.164C27.7586 185.32 27.7386 184.532 27.6986 183.812C27.9626 183.852 28.2746 183.872 28.6266 183.872C28.9786 183.872 29.3066 183.852 29.6066 183.812C30.1666 184.176 30.6026 184.732 30.9146 185.492C31.2266 186.248 31.3826 187.072 31.3826 187.96L31.3866 187.968Z" fill="#FF5729"/>
<path d="M28.1269 174.368C28.8229 174.368 29.4229 174.52 29.9269 174.82C30.4309 175.124 30.8149 175.564 31.0789 176.14C31.3429 176.716 31.4789 177.408 31.4789 178.208C31.4789 179.008 31.3469 179.74 31.0789 180.312C30.8149 180.884 30.4309 181.312 29.9309 181.6C29.4309 181.888 28.8309 182.032 28.1269 182.032C27.4229 182.032 26.7949 182.04 26.2389 182.052C25.6829 182.068 25.2349 182.088 24.8949 182.116C24.9469 181.804 24.9709 181.48 24.9749 181.14C24.9749 180.8 24.9509 180.488 24.8949 180.208C25.2389 180.236 25.6869 180.256 26.2389 180.272C26.7909 180.288 27.4349 180.292 28.1669 180.292C28.6269 180.292 29.0149 180.216 29.3389 180.064C29.6629 179.912 29.9069 179.68 30.0829 179.368C30.2549 179.056 30.3429 178.668 30.3429 178.204C30.3429 177.74 30.2549 177.36 30.0829 177.052C29.9109 176.74 29.6629 176.508 29.3349 176.352C29.0109 176.196 28.6229 176.12 28.1669 176.12C27.3909 176.12 26.7349 176.124 26.1989 176.136C25.6629 176.148 25.2269 176.168 24.8909 176.196C24.9429 175.884 24.9669 175.56 24.9709 175.216C24.9749 174.872 24.9469 174.564 24.8909 174.288C25.2149 174.316 25.6629 174.336 26.2429 174.348C26.8229 174.36 27.4509 174.364 28.1229 174.364L28.1269 174.368Z" fill="#FF5729"/>
<path d="M31.2587 173.36C30.7667 173.124 30.2467 172.88 29.6987 172.632C29.1507 172.384 28.6107 172.144 28.0787 171.912C26.9467 171.424 25.8867 170.988 24.8987 170.596C24.9507 170.196 24.9787 169.696 24.9827 169.104C24.9867 168.512 24.9587 168.048 24.8987 167.712C26.0307 167.26 27.0907 166.816 28.0787 166.38C28.9267 166.012 29.9867 165.528 31.2587 164.928V167.032C30.6947 167.212 30.0307 167.452 29.2747 167.744C28.4707 168.056 27.7427 168.348 27.0907 168.624C26.4387 168.9 26.0107 169.096 25.8067 169.224V169.164C26.0907 169.328 26.9907 169.708 28.5027 170.3C28.9827 170.488 29.4587 170.668 29.9267 170.848C30.3947 171.028 30.8387 171.196 31.2587 171.352V173.364V173.36ZM28.9827 170.66C29.0067 170.212 29.0147 169.708 29.0147 169.14C29.0147 168.572 29.0027 168.068 28.9827 167.62L30.0347 167.272C30.0107 167.82 30.0027 168.46 30.0027 169.192C30.0027 169.924 30.0147 170.564 30.0347 171.112L28.9827 170.656V170.66Z" fill="#FF5729"/>
<path d="M31.2586 162.484C30.8746 162.44 30.4906 162.416 30.1106 162.416C29.7306 162.416 29.3506 162.44 28.9706 162.484C28.3426 162.944 27.6546 163.472 26.9026 164.08C26.1946 164.64 25.5266 165.192 24.9026 165.732C24.9546 165.364 24.9786 164.98 24.9826 164.58C24.9866 164.18 24.9586 163.848 24.9026 163.588C25.3786 163.296 25.9186 162.948 26.5226 162.544C27.1506 162.108 27.6666 161.74 28.0746 161.432V161.696C27.5306 161.288 27.0146 160.92 26.5226 160.592C26.0146 160.24 25.4746 159.892 24.9026 159.548C24.9586 159.288 24.9866 158.968 24.9826 158.584C24.9826 158.204 24.9546 157.828 24.9026 157.46C25.5146 157.984 26.1826 158.536 26.9026 159.116C27.2426 159.388 27.5826 159.656 27.9306 159.92C28.2746 160.184 28.6226 160.448 28.9746 160.708C29.3466 160.748 29.7266 160.768 30.1066 160.768C30.4866 160.768 30.8746 160.744 31.2626 160.7V162.48L31.2586 162.484Z" fill="#FF5729"/>
<path d="M31.2587 158.268C30.7667 158.032 30.2467 157.788 29.6987 157.54C29.1507 157.292 28.6107 157.052 28.0787 156.82C26.9467 156.332 25.8867 155.896 24.8987 155.504C24.9507 155.104 24.9787 154.604 24.9827 154.012C24.9867 153.42 24.9587 152.956 24.8987 152.62C26.0307 152.168 27.0907 151.724 28.0787 151.288C28.9267 150.92 29.9867 150.436 31.2587 149.836V151.94C30.6947 152.12 30.0307 152.36 29.2747 152.652C28.4707 152.964 27.7427 153.256 27.0907 153.532C26.4387 153.808 26.0107 154.004 25.8067 154.132V154.072C26.0907 154.236 26.9907 154.616 28.5027 155.208C28.9827 155.396 29.4587 155.576 29.9267 155.756C30.3947 155.936 30.8387 156.104 31.2587 156.26V158.272V158.268ZM28.9827 155.572C29.0067 155.124 29.0147 154.62 29.0147 154.052C29.0147 153.484 29.0027 152.98 28.9827 152.532L30.0347 152.184C30.0107 152.732 30.0027 153.372 30.0027 154.104C30.0027 154.836 30.0147 155.476 30.0347 156.024L28.9827 155.568V155.572Z" fill="#FF5729"/>
<path d="M31.2587 148.268C30.1947 148.224 29.1347 148.2 28.0747 148.2C27.0147 148.2 25.9547 148.224 24.8987 148.268C24.9427 147.912 24.9667 147.48 24.9707 146.976C24.9707 146.468 24.9507 146.06 24.8987 145.74C25.5427 145.316 26.1827 144.88 26.8187 144.44C27.4547 143.996 28.0867 143.54 28.7147 143.068C29.0187 142.844 29.3227 142.616 29.6227 142.384C29.9227 142.156 30.2227 141.924 30.5227 141.692L30.6587 142.228C29.7027 142.196 28.7427 142.184 27.7747 142.204C27.3107 142.208 26.8347 142.22 26.3507 142.232C25.8627 142.248 25.3827 142.268 24.8987 142.296C24.9507 141.972 24.9747 141.66 24.9787 141.356C24.9787 141.052 24.9547 140.756 24.8987 140.472C25.4307 140.488 25.9587 140.5 26.4907 140.512C27.0187 140.52 27.5547 140.524 28.0907 140.524C29.1427 140.524 30.1987 140.5 31.2627 140.448V142.916C30.7827 143.24 30.3067 143.568 29.8427 143.9C29.3747 144.232 28.9147 144.568 28.4547 144.908C27.5387 145.588 26.6267 146.296 25.7147 147.036L25.5787 146.5C26.5107 146.528 27.4507 146.536 28.3987 146.52C29.3467 146.504 30.2987 146.472 31.2627 146.412V148.26L31.2587 148.268Z" fill="#FF5729"/>
<path d="M31.4108 130.756C31.4108 131.684 31.2748 132.48 30.9988 133.144C30.7228 133.808 30.3348 134.316 29.8268 134.664C29.3188 135.012 28.7267 135.184 28.0427 135.184C27.3267 135.184 26.7147 134.996 26.2187 134.624C25.7227 134.252 25.3468 133.72 25.0948 133.032C24.8428 132.344 24.7188 131.528 24.7188 130.584C24.7188 130.028 24.7708 129.464 24.8748 128.892C24.9788 128.316 25.1628 127.712 25.4228 127.072C25.7188 127.112 25.9868 127.132 26.2268 127.132C26.4668 127.132 26.7427 127.112 27.0427 127.072C26.6427 127.704 26.3588 128.308 26.1948 128.884C26.0308 129.46 25.9468 129.992 25.9388 130.492C25.9348 131.084 26.0108 131.6 26.1748 132.036C26.3388 132.472 26.5788 132.808 26.8948 133.044C27.2108 133.28 27.5948 133.4 28.0388 133.4C28.4828 133.4 28.8348 133.292 29.1588 133.08C29.4828 132.868 29.7348 132.548 29.9148 132.124C30.0948 131.7 30.1868 131.172 30.1868 130.548C30.1868 129.924 30.0748 129.292 29.8468 128.712C29.6188 128.132 29.2628 127.592 28.7708 127.088C29.0388 127.116 29.2948 127.116 29.5508 127.088C29.8068 127.06 30.0708 127.02 30.3468 126.968C30.7028 127.472 30.9707 128.024 31.1427 128.624C31.3187 129.224 31.4068 129.932 31.4068 130.752L31.4108 130.756Z" fill="#FF5729"/>
<path d="M31.2587 125.024C30.5227 124.96 29.4627 124.932 28.0787 124.932C26.6947 124.932 25.6347 124.964 24.8987 125.024C24.9267 124.816 24.9507 124.396 24.9707 123.768C24.9907 123.14 25.0027 122.464 25.0107 121.74C25.0147 120.908 25.0107 120.156 24.9987 119.484C24.9827 118.812 24.9627 118.308 24.9267 117.976C25.1827 118 25.4387 118.008 25.6947 118.008C25.9507 118.008 26.2067 117.996 26.4627 117.976C26.3947 118.22 26.3347 118.548 26.2747 118.964C26.2187 119.38 26.1707 119.852 26.1307 120.376C26.0987 120.892 26.0707 121.392 26.0547 121.88C26.0387 122.368 26.0307 122.796 26.0387 123.164C26.2987 123.176 26.5587 123.184 26.8187 123.188C27.0787 123.192 27.3387 123.192 27.5987 123.188C27.6147 122.448 27.6107 121.628 27.5787 120.736C27.5467 119.844 27.5067 119.12 27.4547 118.564C27.6587 118.588 27.8707 118.596 28.0907 118.596C28.3107 118.596 28.5227 118.584 28.7267 118.564C28.6827 119.128 28.6427 119.86 28.6147 120.752C28.5867 121.644 28.5827 122.456 28.6067 123.188C29.1947 123.188 29.7027 123.172 30.1267 123.144C30.1307 122.744 30.1267 122.296 30.1107 121.804C30.0947 121.312 30.0667 120.828 30.0267 120.352C29.9947 119.856 29.9467 119.396 29.8907 118.972C29.8347 118.552 29.7707 118.216 29.7027 117.968C29.9587 117.992 30.2187 118 30.4827 118C30.7467 118 31.0107 117.988 31.2627 117.968V125.016L31.2587 125.024Z" fill="#FF5729"/>
<path d="M31.2587 115.98C30.1947 115.936 29.1347 115.912 28.0747 115.912C27.0147 115.912 25.9547 115.936 24.8987 115.98C24.9427 115.624 24.9667 115.192 24.9707 114.688C24.9707 114.18 24.9507 113.772 24.8987 113.452C25.5427 113.028 26.1827 112.592 26.8187 112.148C27.4547 111.704 28.0867 111.248 28.7147 110.78C29.0187 110.552 29.3227 110.328 29.6227 110.096C29.9227 109.868 30.2227 109.636 30.5227 109.404L30.6587 109.94C29.7027 109.908 28.7427 109.896 27.7747 109.916C27.3107 109.92 26.8347 109.932 26.3507 109.944C25.8667 109.956 25.3827 109.98 24.8987 110.008C24.9507 109.684 24.9747 109.372 24.9787 109.068C24.9787 108.764 24.9547 108.468 24.8987 108.184C25.4307 108.2 25.9587 108.212 26.4907 108.224C27.0187 108.232 27.5547 108.236 28.0907 108.236C29.1427 108.236 30.1987 108.212 31.2627 108.16V110.628C30.7827 110.952 30.3067 111.28 29.8427 111.612C29.3747 111.944 28.9147 112.284 28.4547 112.62C27.5387 113.3 26.6267 114.008 25.7147 114.748L25.5787 114.212C26.5107 114.24 27.4507 114.248 28.3987 114.232C29.3467 114.216 30.2987 114.184 31.2627 114.124V115.972L31.2587 115.98Z" fill="#FF5729"/>
<path d="M31.2587 103.732C30.6947 103.68 29.8987 103.652 28.8707 103.644C27.8427 103.636 26.8987 103.644 26.0347 103.672C26.0467 104.288 26.0747 104.824 26.1227 105.28C26.1707 105.736 26.2387 106.172 26.3227 106.592C26.0867 106.548 25.8467 106.524 25.6107 106.524C25.3747 106.524 25.1347 106.548 24.8987 106.592C24.9387 105.144 24.9587 103.868 24.9587 102.756C24.9587 101.644 24.9387 100.368 24.8987 98.9199C25.1347 98.9599 25.3747 98.9799 25.6107 98.9799C25.8467 98.9799 26.0867 98.9599 26.3227 98.9199C26.2387 99.3439 26.1707 99.7839 26.1227 100.244C26.0747 100.704 26.0467 101.244 26.0347 101.864C26.9107 101.892 27.8627 101.896 28.8827 101.88C29.9067 101.864 30.6987 101.828 31.2587 101.78V103.732Z" fill="#FF5729"/>
<path d="M24.167 94.6959C23.959 94.4799 23.559 94.1599 22.971 93.7359C22.959 93.7239 22.887 93.6719 22.759 93.5759C22.799 93.3679 22.819 92.9959 22.819 92.4679C22.819 91.9399 22.799 91.5719 22.759 91.3599C22.871 91.5359 22.991 91.7159 23.115 91.9079C23.239 92.0959 23.363 92.2879 23.487 92.4799C23.815 92.9719 24.043 93.3039 24.167 93.4719C24.155 93.5679 24.151 93.7719 24.151 94.0839C24.151 94.3959 24.155 94.5999 24.167 94.6959ZM31.259 97.3519C30.523 97.2879 29.463 97.2599 28.079 97.2599C26.695 97.2599 25.635 97.2919 24.899 97.3519C24.927 97.1439 24.951 96.7239 24.971 96.0959C24.991 95.4679 25.003 94.7919 25.011 94.0679C25.015 93.2359 25.011 92.4839 24.999 91.8119C24.983 91.1399 24.963 90.6359 24.927 90.3039C25.183 90.3279 25.439 90.3359 25.695 90.3359C25.951 90.3359 26.207 90.3239 26.463 90.3039C26.395 90.5479 26.335 90.8759 26.275 91.2919C26.219 91.7079 26.171 92.1799 26.131 92.7039C26.099 93.2199 26.071 93.7199 26.055 94.2079C26.039 94.6959 26.031 95.1239 26.039 95.4919C26.299 95.5039 26.559 95.5119 26.819 95.5159C27.079 95.5199 27.339 95.5199 27.599 95.5159C27.615 94.7759 27.611 93.9559 27.579 93.0639C27.547 92.1719 27.507 91.4479 27.455 90.8919C27.659 90.9159 27.871 90.9239 28.091 90.9239C28.311 90.9239 28.523 90.9119 28.727 90.8919C28.683 91.4559 28.643 92.1879 28.615 93.0799C28.587 93.9719 28.583 94.7839 28.607 95.5159C29.195 95.5159 29.703 95.4999 30.127 95.4719C30.131 95.0719 30.127 94.6239 30.111 94.1319C30.095 93.6399 30.067 93.1559 30.027 92.6799C29.995 92.1839 29.947 91.7239 29.891 91.2999C29.835 90.8799 29.771 90.5439 29.703 90.2959C29.959 90.3199 30.219 90.3279 30.483 90.3279C30.747 90.3279 31.011 90.3159 31.263 90.2959V97.3439L31.259 97.3519Z" fill="#FF5729"/>
<path d="M31.3589 84.3799C31.3589 85.1039 31.2909 85.8159 31.1549 86.5199C31.0189 87.2239 30.8429 87.8679 30.6309 88.4479C30.3469 88.4039 30.0669 88.3799 29.7869 88.3799C29.5069 88.3799 29.2269 88.4039 28.9509 88.4479C29.3469 88.0639 29.6469 87.4719 29.8509 86.6799C30.0549 85.8879 30.1549 85.0599 30.1549 84.2079C30.1549 83.6639 30.0949 83.2719 29.9749 83.0279C29.8549 82.7839 29.6749 82.6639 29.4309 82.6639C29.2229 82.6639 29.0669 82.7399 28.9629 82.8919C28.8629 83.0439 28.7829 83.2839 28.7309 83.6079C28.6789 83.9319 28.6189 84.4639 28.5589 85.1999C28.4909 85.9519 28.3949 86.5639 28.2669 87.0399C28.1389 87.5159 27.9509 87.8799 27.7069 88.1359C27.4589 88.3919 27.1309 88.5159 26.7189 88.5159C26.0669 88.5159 25.5829 88.2279 25.2589 87.6479C24.9349 87.0679 24.7749 86.1879 24.7749 85.0039C24.7749 84.3599 24.8069 83.7879 24.8669 83.2879C24.9309 82.7879 25.0229 82.2719 25.1469 81.7399C25.2149 81.4279 25.2589 81.2319 25.2829 81.1559C25.4629 81.1839 25.6469 81.2039 25.8349 81.2119C26.0229 81.2199 26.2069 81.2199 26.3949 81.2079C26.4749 81.2039 26.5549 81.1959 26.6309 81.1879C26.7109 81.1799 26.7909 81.1679 26.8669 81.1599C26.5989 81.7439 26.3869 82.3599 26.2229 83.0079C26.0589 83.6559 25.9749 84.3439 25.9749 85.0679C25.9749 85.6319 26.0309 86.0439 26.1389 86.2919C26.2509 86.5439 26.4229 86.6679 26.6589 86.6679C26.8589 86.6679 27.0149 86.5959 27.1309 86.4559C27.2469 86.3159 27.3349 86.0879 27.3989 85.7719C27.4629 85.4559 27.5149 85.0159 27.5589 84.4439C27.5709 84.2759 27.5829 84.1479 27.5909 84.0639C27.6589 83.3239 27.7549 82.7199 27.8829 82.2519C28.0109 81.7839 28.1989 81.4279 28.4469 81.1839C28.6949 80.9399 29.0229 80.8159 29.4309 80.8159C30.0749 80.8159 30.5549 81.1119 30.8709 81.6999C31.1869 82.2879 31.3469 83.1799 31.3469 84.3799H31.3589Z" fill="#FF5729"/>
<path d="M31.2587 78.8238C30.5227 78.7598 29.4627 78.7318 28.0787 78.7318C26.6947 78.7318 25.6347 78.7638 24.8987 78.8238C24.9507 78.4838 24.9747 78.1558 24.9787 77.8358C24.9787 77.5158 24.9547 77.2038 24.8987 76.8998C25.6507 76.9638 26.7227 76.9918 28.1107 76.9838C29.4987 76.9798 30.5507 76.9398 31.2627 76.8718V78.8238H31.2587Z" fill="#FF5729"/>
<path d="M31.2587 74.668C30.5227 74.604 29.4627 74.576 28.0787 74.576C26.6947 74.576 25.6347 74.608 24.8987 74.668C24.9427 74.328 24.9667 73.876 24.9707 73.316C24.9707 72.752 24.9507 72.324 24.8987 72.024C25.8427 71.712 26.6947 71.412 27.4507 71.124C28.1787 70.848 29.0067 70.508 29.9267 70.108L29.9187 70.396C29.2307 70.072 28.4027 69.716 27.4427 69.328C26.5547 68.976 25.7067 68.668 24.8987 68.396C24.9507 68.08 24.9747 67.644 24.9747 67.092C24.9747 66.54 24.9507 66.108 24.8987 65.788C25.6507 65.852 26.7227 65.88 28.1107 65.872C29.4987 65.868 30.5507 65.828 31.2627 65.76V67.668C30.8507 67.636 30.1227 67.604 29.0827 67.584C27.8707 67.568 26.8307 67.568 25.9627 67.592L25.9467 67.28C26.7547 67.66 27.6867 68.064 28.7387 68.492C29.5547 68.824 30.4027 69.152 31.2907 69.468V71.044C30.4307 71.348 29.5827 71.672 28.7467 72.012C27.7387 72.424 26.8187 72.828 25.9827 73.216L25.9907 72.912C26.8467 72.928 27.8187 72.928 28.9107 72.912C30.0027 72.896 30.7867 72.86 31.2707 72.812V74.668H31.2587Z" fill="#FF5729"/>
<path d="M31.4028 59.552C31.4028 60.456 31.2708 61.236 31.0068 61.884C30.7428 62.536 30.3628 63.032 29.8628 63.376C29.3628 63.72 28.7628 63.892 28.0588 63.892C27.3548 63.892 26.7548 63.72 26.2548 63.376C25.7548 63.032 25.3708 62.532 25.1108 61.884C24.8468 61.232 24.7148 60.456 24.7148 59.552C24.7148 58.648 24.8468 57.868 25.1108 57.22C25.3748 56.568 25.7548 56.072 26.2548 55.732C26.7548 55.392 27.3548 55.22 28.0588 55.22C28.7628 55.22 29.3588 55.392 29.8628 55.732C30.3628 56.076 30.7468 56.572 31.0068 57.22C31.2708 57.872 31.4028 58.648 31.4028 59.552ZM30.2748 59.552C30.2748 59.016 30.1908 58.552 30.0188 58.168C29.8508 57.784 29.6028 57.488 29.2748 57.284C28.9508 57.08 28.5588 56.98 28.0988 56.98C27.6388 56.98 27.2268 57.08 26.8908 57.284C26.5548 57.488 26.2988 57.78 26.1188 58.168C25.9388 58.552 25.8508 59.012 25.8508 59.552C25.8508 60.092 25.9388 60.556 26.1188 60.94C26.2988 61.32 26.5548 61.612 26.8908 61.812C27.2268 62.012 27.6308 62.112 28.0988 62.112C28.5668 62.112 28.9468 62.012 29.2748 61.812C29.5988 61.612 29.8468 61.32 30.0188 60.94C30.1868 60.56 30.2748 60.096 30.2748 59.552Z" fill="#FF5729"/>
<path d="M179.346 187.124C179.346 188.052 179.21 188.848 178.934 189.512C178.658 190.176 178.27 190.684 177.762 191.032C177.254 191.38 176.662 191.552 175.978 191.552C175.262 191.552 174.65 191.364 174.154 190.992C173.658 190.62 173.282 190.088 173.03 189.4C172.778 188.712 172.654 187.896 172.654 186.952C172.654 186.396 172.706 185.832 172.81 185.26C172.914 184.688 173.098 184.08 173.358 183.44C173.654 183.48 173.922 183.5 174.162 183.5C174.402 183.5 174.678 183.48 174.978 183.44C174.578 184.072 174.294 184.676 174.13 185.252C173.966 185.824 173.882 186.36 173.874 186.86C173.87 187.452 173.946 187.968 174.11 188.404C174.274 188.84 174.514 189.176 174.83 189.412C175.146 189.648 175.53 189.768 175.974 189.768C176.418 189.768 176.77 189.66 177.094 189.448C177.418 189.236 177.67 188.916 177.85 188.492C178.03 188.068 178.122 187.54 178.122 186.916C178.122 186.292 178.01 185.66 177.782 185.08C177.554 184.5 177.198 183.96 176.706 183.456C176.974 183.484 177.23 183.484 177.486 183.456C177.742 183.428 178.006 183.388 178.282 183.336C178.638 183.84 178.906 184.392 179.078 184.988C179.254 185.588 179.342 186.296 179.342 187.116L179.346 187.124Z" fill="#FF5729"/>
<path d="M179.338 177.384C179.338 178.288 179.206 179.068 178.942 179.716C178.678 180.368 178.298 180.864 177.798 181.208C177.298 181.552 176.698 181.724 175.994 181.724C175.29 181.724 174.69 181.552 174.19 181.208C173.69 180.864 173.306 180.364 173.046 179.716C172.782 179.068 172.65 178.288 172.65 177.384C172.65 176.48 172.782 175.7 173.046 175.052C173.31 174.404 173.69 173.904 174.19 173.564C174.69 173.224 175.29 173.052 175.994 173.052C176.698 173.052 177.294 173.224 177.798 173.564C178.298 173.908 178.682 174.404 178.942 175.052C179.206 175.704 179.338 176.48 179.338 177.384ZM178.21 177.384C178.21 176.848 178.126 176.384 177.954 176C177.786 175.616 177.538 175.32 177.21 175.116C176.886 174.912 176.494 174.812 176.034 174.812C175.574 174.812 175.162 174.912 174.826 175.116C174.49 175.32 174.234 175.612 174.054 176C173.874 176.384 173.786 176.844 173.786 177.384C173.786 177.924 173.874 178.388 174.054 178.772C174.234 179.156 174.49 179.444 174.826 179.644C175.162 179.844 175.566 179.944 176.034 179.944C176.502 179.944 176.882 179.844 177.21 179.644C177.534 179.444 177.782 179.152 177.954 178.772C178.122 178.392 178.21 177.928 178.21 177.384Z" fill="#FF5729"/>
<path d="M179.195 171.184C178.459 171.12 177.399 171.092 176.015 171.092C174.631 171.092 173.57 171.124 172.834 171.184C172.838 170.76 172.843 170.364 172.843 170C172.843 169.636 172.838 169.284 172.826 168.944C172.814 168.708 172.806 168.464 172.806 168.216C172.806 167.968 172.802 167.704 172.802 167.428C172.802 166.184 172.955 165.268 173.267 164.676C173.579 164.084 174.046 163.788 174.678 163.788C175.158 163.788 175.542 163.94 175.822 164.252C176.106 164.56 176.302 164.92 176.41 165.324C176.522 165.732 176.574 166.104 176.574 166.444H176.71C176.85 165.676 177.166 165.06 177.654 164.596C178.142 164.132 178.659 163.772 179.195 163.52V165.956C178.679 166.008 178.263 166.124 177.943 166.304C177.623 166.484 177.379 166.744 177.215 167.084C177.047 167.424 176.938 167.868 176.886 168.416C176.87 168.552 176.858 168.704 176.854 168.868C176.85 169.036 176.846 169.204 176.846 169.372C177.67 169.348 178.142 169.336 178.254 169.328C178.422 169.324 178.587 169.312 178.739 169.3C178.891 169.288 179.042 169.272 179.198 169.26V171.184H179.195ZM175.791 169.376L175.815 168.976C175.827 168.76 175.838 168.532 175.846 168.284C175.858 168.04 175.862 167.796 175.862 167.56C175.862 167.14 175.826 166.792 175.75 166.508C175.674 166.224 175.567 166.012 175.415 165.868C175.267 165.724 175.078 165.652 174.85 165.652C174.526 165.652 174.294 165.812 174.146 166.132C173.998 166.452 173.926 166.904 173.926 167.484C173.926 167.7 173.926 167.912 173.93 168.124C173.93 168.336 173.938 168.54 173.95 168.732L173.958 169.344C174.242 169.356 174.534 169.364 174.834 169.368C175.138 169.372 175.45 169.376 175.782 169.376H175.791Z" fill="#FF5729"/>
<path d="M179.195 161.732C178.459 161.668 177.399 161.64 176.015 161.64C174.631 161.64 173.57 161.672 172.834 161.732C172.838 161.308 172.843 160.912 172.843 160.548C172.843 160.184 172.838 159.832 172.826 159.492C172.814 159.256 172.806 159.012 172.806 158.764C172.806 158.516 172.802 158.252 172.802 157.976C172.802 156.732 172.955 155.816 173.267 155.224C173.579 154.632 174.046 154.336 174.678 154.336C175.158 154.336 175.542 154.488 175.822 154.8C176.106 155.108 176.302 155.468 176.41 155.872C176.522 156.28 176.574 156.652 176.574 156.992H176.71C176.85 156.224 177.166 155.608 177.654 155.144C178.142 154.68 178.659 154.32 179.195 154.068V156.504C178.679 156.556 178.263 156.672 177.943 156.852C177.623 157.032 177.379 157.292 177.215 157.632C177.047 157.972 176.938 158.416 176.886 158.964C176.87 159.1 176.858 159.252 176.854 159.416C176.85 159.584 176.846 159.752 176.846 159.92C177.67 159.896 178.142 159.884 178.254 159.876C178.422 159.872 178.587 159.86 178.739 159.848C178.891 159.836 179.042 159.82 179.198 159.808V161.732H179.195ZM175.791 159.928L175.815 159.528C175.827 159.312 175.838 159.084 175.846 158.836C175.858 158.592 175.862 158.348 175.862 158.112C175.862 157.692 175.826 157.344 175.75 157.06C175.674 156.776 175.567 156.564 175.415 156.42C175.267 156.276 175.078 156.204 174.85 156.204C174.526 156.204 174.294 156.364 174.146 156.684C173.998 157.004 173.926 157.456 173.926 158.036C173.926 158.252 173.926 158.464 173.93 158.676C173.93 158.888 173.938 159.092 173.95 159.284L173.958 159.896C174.242 159.908 174.534 159.916 174.834 159.92C175.138 159.924 175.45 159.928 175.782 159.928H175.791Z" fill="#FF5729"/>
<path d="M179.194 152.284C178.458 152.22 177.398 152.192 176.014 152.192C174.63 152.192 173.57 152.224 172.834 152.284C172.862 152.076 172.886 151.656 172.906 151.028C172.926 150.4 172.938 149.724 172.946 149C172.95 148.168 172.946 147.416 172.934 146.744C172.918 146.072 172.898 145.568 172.862 145.232C173.118 145.256 173.374 145.264 173.63 145.264C173.886 145.264 174.142 145.252 174.398 145.232C174.33 145.476 174.27 145.804 174.21 146.22C174.15 146.636 174.106 147.108 174.066 147.632C174.034 148.148 174.006 148.648 173.99 149.136C173.974 149.624 173.966 150.052 173.974 150.42C174.234 150.432 174.494 150.44 174.754 150.444C175.014 150.448 175.274 150.448 175.534 150.444C175.55 149.704 175.546 148.884 175.514 147.992C175.482 147.1 175.442 146.376 175.39 145.82C175.594 145.844 175.806 145.852 176.026 145.852C176.246 145.852 176.458 145.84 176.662 145.82C176.618 146.384 176.578 147.116 176.55 148.008C176.522 148.9 176.518 149.712 176.542 150.444C177.13 150.444 177.638 150.428 178.062 150.4C178.066 150 178.062 149.552 178.046 149.06C178.03 148.568 178.002 148.084 177.962 147.608C177.93 147.112 177.882 146.652 177.826 146.228C177.77 145.808 177.706 145.472 177.638 145.224C177.894 145.248 178.154 145.256 178.418 145.256C178.682 145.256 178.946 145.244 179.198 145.224V152.272L179.194 152.284Z" fill="#FF5729"/>
<path d="M179.338 139.236C179.338 140.14 179.206 140.92 178.942 141.568C178.678 142.22 178.298 142.716 177.798 143.06C177.298 143.404 176.698 143.576 175.994 143.576C175.29 143.576 174.69 143.404 174.19 143.06C173.69 142.716 173.306 142.216 173.046 141.568C172.782 140.92 172.65 140.14 172.65 139.236C172.65 138.332 172.782 137.552 173.046 136.904C173.31 136.256 173.69 135.756 174.19 135.416C174.69 135.076 175.29 134.904 175.994 134.904C176.698 134.904 177.294 135.076 177.798 135.416C178.298 135.76 178.682 136.256 178.942 136.904C179.206 137.556 179.338 138.332 179.338 139.236ZM178.21 139.236C178.21 138.7 178.126 138.236 177.954 137.852C177.786 137.468 177.538 137.172 177.21 136.968C176.886 136.764 176.494 136.664 176.034 136.664C175.574 136.664 175.162 136.764 174.826 136.968C174.49 137.172 174.234 137.464 174.054 137.852C173.874 138.236 173.786 138.696 173.786 139.236C173.786 139.776 173.874 140.24 174.054 140.624C174.234 141.008 174.49 141.296 174.826 141.496C175.162 141.696 175.566 141.796 176.034 141.796C176.502 141.796 176.882 141.696 177.21 141.496C177.534 141.296 177.782 141.004 177.954 140.624C178.122 140.244 178.21 139.78 178.21 139.236Z" fill="#FF5729"/>
<path d="M179.194 130.28C178.702 130.044 178.182 129.8 177.634 129.552C177.086 129.304 176.546 129.064 176.014 128.832C174.882 128.344 173.822 127.908 172.834 127.516C172.886 127.116 172.914 126.616 172.918 126.024C172.922 125.432 172.894 124.968 172.834 124.632C173.966 124.18 175.026 123.736 176.014 123.3C176.862 122.932 177.922 122.448 179.194 121.848V123.952C178.63 124.132 177.966 124.372 177.21 124.664C176.406 124.976 175.678 125.268 175.026 125.54C174.374 125.816 173.946 126.012 173.742 126.14V126.08C174.026 126.244 174.926 126.624 176.438 127.216C176.918 127.404 177.394 127.584 177.862 127.764C178.33 127.944 178.774 128.112 179.194 128.268V130.28ZM176.922 127.58C176.946 127.132 176.954 126.628 176.954 126.06C176.954 125.492 176.942 124.988 176.922 124.54L177.974 124.192C177.95 124.74 177.942 125.38 177.942 126.112C177.942 126.844 177.954 127.484 177.974 128.032L176.922 127.572V127.58Z" fill="#FF5729"/>
<path d="M179.194 120.276C178.458 120.212 177.398 120.184 176.014 120.184C174.63 120.184 173.57 120.216 172.834 120.276C172.862 120.068 172.886 119.648 172.906 119.02C172.926 118.392 172.938 117.716 172.946 116.992C172.95 116.16 172.946 115.408 172.934 114.736C172.918 114.064 172.898 113.56 172.862 113.228C173.118 113.252 173.374 113.26 173.63 113.26C173.886 113.26 174.142 113.248 174.398 113.228C174.33 113.472 174.27 113.8 174.21 114.216C174.154 114.632 174.106 115.104 174.066 115.628C174.034 116.144 174.006 116.644 173.99 117.132C173.974 117.62 173.966 118.048 173.974 118.416C174.234 118.428 174.494 118.436 174.754 118.44C175.014 118.444 175.274 118.444 175.534 118.44C175.55 117.7 175.546 116.88 175.514 115.988C175.482 115.096 175.442 114.372 175.39 113.816C175.594 113.84 175.806 113.848 176.026 113.848C176.246 113.848 176.458 113.836 176.662 113.816C176.618 114.38 176.578 115.112 176.55 116.004C176.522 116.896 176.518 117.708 176.542 118.44C177.13 118.44 177.638 118.424 178.062 118.396C178.066 117.996 178.062 117.548 178.046 117.056C178.03 116.564 178.002 116.08 177.962 115.604C177.93 115.108 177.882 114.648 177.826 114.224C177.77 113.804 177.706 113.468 177.638 113.22C177.894 113.244 178.154 113.252 178.418 113.252C178.682 113.252 178.946 113.24 179.198 113.22V120.268L179.194 120.276Z" fill="#FF5729"/>
<path d="M179.195 111.236C178.459 111.172 177.399 111.144 176.015 111.144C174.631 111.144 173.57 111.176 172.834 111.236C172.838 110.812 172.843 110.416 172.843 110.052C172.843 109.688 172.838 109.336 172.826 108.996C172.814 108.76 172.806 108.516 172.806 108.268C172.806 108.02 172.802 107.756 172.802 107.48C172.802 106.236 172.955 105.32 173.267 104.728C173.575 104.136 174.046 103.84 174.678 103.84C175.158 103.84 175.542 103.996 175.822 104.304C176.102 104.612 176.302 104.968 176.41 105.376C176.518 105.784 176.574 106.156 176.574 106.496H176.71C176.85 105.728 177.166 105.112 177.654 104.648C178.142 104.184 178.659 103.824 179.195 103.572V106.008C178.679 106.06 178.263 106.176 177.943 106.356C177.623 106.536 177.379 106.796 177.215 107.136C177.047 107.476 176.938 107.92 176.886 108.468C176.87 108.604 176.858 108.756 176.854 108.92C176.85 109.088 176.846 109.256 176.846 109.424C177.67 109.4 178.142 109.388 178.254 109.38C178.422 109.376 178.587 109.364 178.739 109.352C178.891 109.34 179.042 109.324 179.198 109.312V111.236H179.195ZM175.791 109.428L175.815 109.028C175.827 108.812 175.838 108.584 175.846 108.336C175.858 108.088 175.862 107.848 175.862 107.612C175.862 107.192 175.826 106.844 175.75 106.56C175.674 106.276 175.567 106.064 175.415 105.92C175.267 105.776 175.078 105.704 174.85 105.704C174.526 105.704 174.294 105.864 174.146 106.184C173.998 106.504 173.926 106.956 173.926 107.536C173.926 107.752 173.926 107.964 173.93 108.176C173.93 108.388 173.938 108.592 173.95 108.784L173.958 109.396C174.242 109.408 174.534 109.416 174.834 109.42C175.138 109.424 175.45 109.428 175.782 109.428H175.791Z" fill="#FF5729"/>
<path d="M179.194 101.784C178.458 101.72 177.398 101.692 176.014 101.692C174.63 101.692 173.57 101.724 172.834 101.784C172.862 101.576 172.886 101.156 172.906 100.528C172.926 99.8998 172.938 99.2238 172.946 98.4998C172.95 97.6678 172.946 96.9158 172.934 96.2438C172.918 95.5718 172.898 95.0678 172.862 94.7358C173.118 94.7598 173.374 94.7678 173.63 94.7678C173.886 94.7678 174.142 94.7558 174.398 94.7358C174.33 94.9798 174.27 95.3078 174.21 95.7238C174.154 96.1398 174.106 96.6118 174.066 97.1358C174.034 97.6518 174.006 98.1518 173.99 98.6398C173.974 99.1278 173.966 99.5558 173.974 99.9238C174.234 99.9358 174.494 99.9438 174.754 99.9478C175.014 99.9518 175.274 99.9518 175.534 99.9478C175.55 99.2078 175.546 98.3878 175.514 97.4958C175.482 96.6038 175.442 95.8798 175.39 95.3238C175.594 95.3478 175.806 95.3558 176.026 95.3558C176.246 95.3558 176.458 95.3438 176.662 95.3238C176.618 95.8878 176.578 96.6198 176.55 97.5118C176.522 98.4038 176.518 99.2158 176.542 99.9478C177.13 99.9478 177.638 99.9318 178.062 99.9038C178.066 99.5038 178.062 99.0558 178.046 98.5638C178.03 98.0718 178.002 97.5878 177.962 97.1118C177.93 96.6158 177.882 96.1558 177.826 95.7318C177.77 95.3118 177.706 94.9758 177.638 94.7278C177.894 94.7518 178.154 94.7598 178.418 94.7598C178.682 94.7598 178.946 94.7478 179.198 94.7278V101.776L179.194 101.784Z" fill="#FF5729"/>
<path d="M179.339 88.7358C179.339 89.6398 179.207 90.4198 178.943 91.0678C178.679 91.7198 178.299 92.2158 177.799 92.5598C177.299 92.9038 176.699 93.0758 175.995 93.0758C175.291 93.0758 174.691 92.9038 174.191 92.5598C173.691 92.2158 173.307 91.7158 173.047 91.0678C172.783 90.4158 172.651 89.6398 172.651 88.7358C172.651 87.8318 172.783 87.0518 173.047 86.4038C173.311 85.7518 173.691 85.2558 174.191 84.9158C174.691 84.5758 175.291 84.4038 175.995 84.4038C176.699 84.4038 177.295 84.5758 177.799 84.9158C178.299 85.2598 178.683 85.7558 178.943 86.4038C179.207 87.0558 179.339 87.8318 179.339 88.7358ZM178.211 88.7358C178.211 88.1998 178.127 87.7358 177.955 87.3518C177.787 86.9678 177.539 86.6718 177.211 86.4678C176.887 86.2638 176.495 86.1638 176.035 86.1638C175.575 86.1638 175.163 86.2638 174.827 86.4678C174.491 86.6718 174.235 86.9638 174.055 87.3518C173.875 87.7358 173.787 88.1958 173.787 88.7358C173.787 89.2758 173.875 89.7398 174.055 90.1238C174.235 90.5038 174.491 90.7958 174.827 90.9958C175.163 91.1958 175.567 91.2958 176.035 91.2958C176.503 91.2958 176.883 91.1958 177.211 90.9958C177.535 90.7958 177.783 90.5038 177.955 90.1238C178.123 89.7438 178.211 89.2798 178.211 88.7358Z" fill="#FF5729"/>
<path d="M180.223 219.868L175.875 218.056L171.531 219.868L173.339 215.524L171.531 211.176L175.875 212.988L180.223 211.176L178.411 215.524L180.223 219.868Z" fill="#FF5729"/>
<path d="M180.223 62.5839L175.875 60.7719L171.531 62.5839L173.339 58.2359L171.531 53.8879L175.875 55.6999L180.223 53.8879L178.411 58.2359L180.223 62.5839Z" fill="#FF5729"/>
<path d="M169.111 55.1722V57.0002C164.283 68.8802 164.287 83.5802 169.111 100.984V103.56C163.339 84.1682 163.335 67.9962 169.111 55.1682V55.1722Z" fill="#FF5729"/>
<path d="M180.223 40.1521V41.1241C177.287 43.8001 174.667 46.8641 172.483 50.3681C172.127 50.9401 171.783 51.5201 171.455 52.1081H170.635C171.027 51.3881 171.439 50.6841 171.871 49.9881C174.207 46.2281 177.043 42.9721 180.219 40.1521H180.223Z" fill="#FF5729"/>
<path d="M180.223 30.5481V31.3881C173.967 35.1961 168.359 40.1841 164.291 46.7201C153.631 63.8601 155.271 88.1881 169.107 119.284V121.016C154.571 88.9881 152.727 63.9561 163.679 46.3401C167.887 39.5681 173.723 34.4361 180.219 30.5481H180.223Z" fill="#FF5729"/>
<path d="M156.099 43.0721C143.691 63.0481 148.075 92.8281 169.107 131.72V133.216C147.403 93.5121 142.815 63.0961 155.487 42.6961C161.415 33.1521 170.579 26.8921 180.219 22.7881V23.5681C170.791 27.6241 161.871 33.7721 156.095 43.0721H156.099Z" fill="#FF5729"/>
<path d="M180.223 239.576V240.824C179.147 242.344 178.003 243.8 176.795 245.208H175.847C177.411 243.42 178.879 241.544 180.223 239.576Z" fill="#FF5729"/>
<path d="M168.543 140.848C168.735 141.16 168.923 141.48 169.111 141.796V143.196C168.723 142.536 168.331 141.88 167.935 141.216C140.383 95.7642 133.439 61.3882 147.299 39.0522C152.719 30.3162 160.871 24.3442 169.583 20.2722H171.315C162.175 24.3042 153.543 30.3522 147.911 39.4322C134.207 61.5202 141.151 95.6442 168.547 140.848H168.543Z" fill="#FF5729"/>
<path d="M135.935 83.0442C136.939 86.9122 138.191 90.9282 139.707 95.0802C139.363 94.7802 139.007 94.4842 138.631 94.2002C137.351 90.5882 136.263 87.0842 135.367 83.6842C135.567 83.4722 135.755 83.2602 135.935 83.0442Z" fill="#FF5729"/>
<path d="M156.039 20.2722C149.639 24.0642 143.863 29.1002 139.715 35.7882C135.991 41.8002 133.799 48.7122 133.139 56.4962C132.923 56.3162 132.699 56.1442 132.475 55.9842C133.183 48.2682 135.391 41.4042 139.103 35.4082C143.095 28.9722 148.575 24.0402 154.659 20.2722H156.035H156.039Z" fill="#FF5729"/>
<path d="M169.111 153.124V154.816C166.255 148.66 162.867 142.3 158.943 135.74C153.735 127.084 149.283 118.832 145.595 110.996C145.655 110.532 145.699 110.056 145.715 109.572C149.495 117.716 154.107 126.32 159.559 135.376C163.199 141.468 166.387 147.388 169.111 153.132V153.124Z" fill="#FF5729"/>
<path d="M176.015 224.744C175.467 225.952 174.867 227.148 174.227 228.316C171.427 233.448 167.115 239.344 160.479 245.208H159.423C165.055 240.344 169.959 234.644 173.599 227.972C174.179 226.908 174.723 225.836 175.231 224.744H176.015Z" fill="#FF5729"/>
<path d="M130.415 87.864C130.679 88.644 130.951 89.428 131.235 90.22C130.947 90.104 130.655 89.996 130.359 89.9C130.167 89.344 129.979 88.796 129.791 88.244C130.003 88.124 130.207 87.992 130.411 87.864H130.415Z" fill="#FF5729"/>
<path d="M142.439 20.2721C138.219 23.4881 134.459 27.3961 131.523 32.1401C127.931 37.9401 125.783 44.5761 125.063 52.0321C124.835 51.9401 124.603 51.8561 124.375 51.7721C125.119 44.2881 127.295 37.6081 130.911 31.7641C133.731 27.2121 137.291 23.4201 141.283 20.2681H142.435L142.439 20.2721Z" fill="#FF5729"/>
<path d="M169.111 172.888V176.168C166.207 162.224 159.819 146.896 149.963 130.256C147.507 126.152 145.231 122.136 143.123 118.212C143.267 117.976 143.411 117.728 143.547 117.48C145.707 121.512 148.051 125.648 150.579 129.888C159.743 145.356 165.923 159.712 169.111 172.888Z" fill="#FF5729"/>
<path d="M163.979 221.26C166.243 217.112 167.959 212.736 169.111 208.124V210.828C167.983 214.576 166.483 218.168 164.607 221.604C160.727 228.704 153.951 237.256 142.119 245.208H140.823C150.167 239.116 158.499 231.288 163.979 221.26Z" fill="#FF5729"/>
<path d="M123.331 28.5002C119.539 34.6402 117.359 41.7162 116.799 49.7082C116.563 49.6602 116.327 49.6162 116.091 49.5762C116.663 41.5042 118.875 34.3442 122.719 28.1202C124.523 25.2002 126.643 22.5922 128.979 20.2722H129.999C127.495 22.6882 125.235 25.4162 123.327 28.5002H123.331Z" fill="#FF5729"/>
<path d="M154.991 214.892C147.395 228.772 134.403 238.472 120.811 245.208H119.187C133.139 238.5 146.607 228.72 154.363 214.548C166.955 191.528 162.451 161.324 140.975 124.772C140.503 123.976 140.039 123.192 139.579 122.4C139.759 122.236 139.943 122.076 140.115 121.9C140.603 122.732 141.095 123.568 141.587 124.404C163.207 161.2 167.711 191.636 154.991 214.892Z" fill="#FF5729"/>
<path d="M132.955 222.908C133.687 222.576 134.391 222.224 135.067 221.856C123.779 233.152 108.639 240.5 94.9273 245.208H92.6753C106.187 240.772 121.379 233.772 132.955 222.908Z" fill="#FF5729"/>
<path d="M117.567 20.2722H118.491C117.343 21.6682 116.275 23.1442 115.299 24.7202C111.087 31.5282 108.871 39.4922 108.647 48.5922C108.411 48.5682 108.175 48.5482 107.935 48.5362C108.163 39.3242 110.415 31.2482 114.695 24.3402C115.583 22.9082 116.543 21.5522 117.567 20.2722Z" fill="#FF5729"/>
<path d="M147.215 204.684C147.227 204.432 147.235 204.176 147.235 203.916C147.235 203.584 147.227 203.256 147.211 202.932C156.087 182.196 152.127 156.156 135.419 125.368C135.623 125.252 135.831 125.132 136.035 125.004C153.259 156.736 157.015 183.492 147.215 204.68V204.684Z" fill="#FF5729"/>
<path d="M106.659 228.252C107.183 228.228 107.711 228.204 108.227 228.172C97.8027 234.256 86.5227 238.404 76.7667 241.176C70.7307 242.896 64.8987 244.208 59.6147 245.208H55.5747C61.8067 244.144 69.0387 242.636 76.5827 240.488C85.9107 237.832 96.6267 233.92 106.655 228.252H106.659Z" fill="#FF5729"/>
<path d="M104.382 70.7522C105.274 73.8002 106.318 76.9322 107.522 80.1522C107.322 80.2482 107.107 80.3402 106.871 80.4362C105.615 77.0842 104.535 73.8242 103.615 70.6562C103.875 70.6883 104.134 70.7162 104.382 70.7522Z" fill="#FF5729"/>
<path d="M100.519 48.2482H99.8066C99.4946 37.6242 101.719 28.4242 106.507 20.6882C106.591 20.5482 106.683 20.4122 106.771 20.2722H107.615C107.447 20.5362 107.275 20.8042 107.115 21.0682C102.399 28.6802 100.203 37.7562 100.515 48.2482H100.519Z" fill="#FF5729"/>
<path d="M140.659 189.748C140.459 189.58 140.259 189.416 140.055 189.252C141.859 182.768 142.535 175.824 142.079 168.436V168.404C142.007 167.24 141.911 166.06 141.779 164.872C140.555 153.476 136.751 141.064 130.363 127.696C130.591 127.616 130.815 127.528 131.039 127.444C142.423 151.332 145.647 172.192 140.663 189.744L140.659 189.748Z" fill="#FF5729"/>
<path d="M85.315 227.304C85.763 227.372 86.219 227.436 86.679 227.492C80.043 230.412 73.427 232.672 67.395 234.404C45.663 240.648 26.579 241.608 26.387 241.62L26.355 240.9C26.543 240.892 45.559 239.936 67.215 233.708C72.891 232.08 79.079 229.984 85.315 227.304Z" fill="#FF5729"/>
<path d="M92.6229 48.5002C92.3869 48.5122 92.1509 48.5322 91.9149 48.5482C90.9629 37.7242 92.4949 28.2802 96.5229 20.2722H97.3189C93.2269 28.2402 91.6629 37.6642 92.6229 48.5002Z" fill="#FF5729"/>
<path d="M101.563 81.7762C101.327 81.8122 101.087 81.8482 100.839 81.8802C99.1948 77.9322 97.7788 74.1002 96.5828 70.3842C96.8308 70.3842 97.0788 70.3762 97.3268 70.3762C98.5228 74.0602 99.9348 77.8562 101.563 81.7722V81.7762Z" fill="#FF5729"/>
<path d="M110.963 101.368C111.979 103.252 113.027 105.148 114.131 107.072C114.051 107.336 113.931 107.608 113.763 107.88C112.423 105.544 111.147 103.244 109.943 100.972C110.099 101.028 110.251 101.08 110.403 101.136C110.603 101.208 110.791 101.288 110.963 101.36V101.368Z" fill="#FF5729"/>
<path d="M131.827 151.064C131.555 150.888 131.279 150.72 130.995 150.556C129.667 143.872 127.507 136.872 124.519 129.56C124.747 129.5 124.979 129.44 125.207 129.368C128.299 136.932 130.503 144.164 131.831 151.064H131.827Z" fill="#FF5729"/>
<path d="M69.6393 223.036C69.9473 223.176 70.2553 223.308 70.5673 223.448C66.6873 224.928 62.5153 226.32 58.0273 227.624C44.8473 231.444 32.6553 233.312 25.0913 234.192V233.472C32.6313 232.592 44.7553 230.732 57.8473 226.932C62.0473 225.712 65.9713 224.408 69.6393 223.032V223.036Z" fill="#FF5729"/>
<path d="M111.495 194.56C111.731 194.644 111.967 194.728 112.191 194.82C108.911 199.148 104.531 203.744 98.6634 208.252C98.2994 208.232 97.9434 208.208 97.5874 208.172C103.647 203.608 108.151 198.948 111.495 194.56Z" fill="#FF5729"/>
<path d="M87.4834 20.2722C84.2114 28.5362 83.3914 38.1962 85.0154 49.2202C84.7794 49.2442 84.5433 49.2762 84.3033 49.3042C82.6793 38.2762 83.4834 28.5842 86.7114 20.2722H87.4834Z" fill="#FF5729"/>
<path d="M95.3671 82.3643C95.1191 82.3763 94.8591 82.3883 94.5991 82.4003C92.8111 78.3963 91.2431 74.5083 89.8911 70.7443C90.1311 70.7203 90.3751 70.7003 90.6231 70.6763C91.9871 74.4563 93.5711 78.3483 95.3671 82.3643Z" fill="#FF5729"/>
<path d="M105.655 102.488C107.183 105.176 108.615 107.832 109.955 110.452C109.731 110.532 109.503 110.608 109.267 110.68C107.951 108.104 106.539 105.488 105.035 102.836C104.403 101.72 103.779 100.608 103.175 99.5083C103.475 99.5403 103.767 99.5803 104.051 99.6163V99.6243C104.575 100.572 105.115 101.524 105.655 102.484V102.488Z" fill="#FF5729"/>
<path d="M122.699 147.02C122.487 146.952 122.271 146.888 122.055 146.828C122.019 146.816 121.975 146.804 121.939 146.796C121.095 141.72 119.755 136.448 117.923 130.996C118.163 130.96 118.407 130.916 118.643 130.876C120.507 136.448 121.859 141.832 122.699 147.02Z" fill="#FF5729"/>
<path d="M59.9551 216.348C60.1231 216.54 60.3071 216.724 60.4871 216.908C56.8111 218.304 52.8751 219.62 48.6591 220.852C40.0391 223.368 31.8351 225.048 25.0911 226.16V225.436C31.7911 224.332 39.9231 222.66 48.4711 220.16C52.4631 218.996 56.2911 217.72 59.9551 216.352V216.348Z" fill="#FF5729"/>
<path d="M97.3069 193.232C97.6389 193.196 97.9789 193.172 98.3229 193.148C95.0189 196.684 90.939 200.308 85.887 203.832C85.731 203.656 85.5909 203.48 85.4709 203.308C89.9389 200.192 93.891 196.832 97.311 193.232H97.3069Z" fill="#FF5729"/>
<path d="M112.327 167.876C111.487 171.22 110.347 174.456 108.911 177.564C108.623 177.648 108.319 177.728 108.011 177.8C109.579 174.496 110.799 171.056 111.687 167.484C111.915 167.604 112.127 167.744 112.327 167.876Z" fill="#FF5729"/>
<path d="M78.0426 20.2721C75.4946 28.9041 75.3906 38.9281 77.7226 50.2921C77.4946 50.3281 77.2586 50.3721 77.0266 50.4121C74.6946 39.0201 74.7866 28.9641 77.3026 20.2681H78.0386L78.0426 20.2721Z" fill="#FF5729"/>
<path d="M89.0908 82.46C88.8268 82.46 88.5588 82.452 88.2948 82.44C86.5188 78.708 84.9309 75.08 83.5269 71.544C83.7669 71.5 84.0109 71.464 84.2509 71.428C85.6749 75 87.2868 78.68 89.0908 82.456V82.46Z" fill="#FF5729"/>
<path d="M97.831 99.0962C100.167 103.372 102.255 107.552 104.087 111.64C103.839 111.664 103.587 111.688 103.331 111.7C101.479 107.584 99.363 103.368 96.991 99.0642C97.275 99.0762 97.551 99.0842 97.831 99.0962Z" fill="#FF5729"/>
<path d="M113.739 145.076C113.499 145.04 113.255 145.008 113.015 144.98C112.563 140.784 111.759 136.444 110.599 131.976C110.839 131.956 111.083 131.932 111.323 131.904C112.495 136.432 113.299 140.828 113.739 145.076Z" fill="#FF5729"/>
<path d="M55.4267 207.58C55.4747 207.828 55.5307 208.076 55.5827 208.316C50.4947 210.448 45.0547 212.372 39.2907 214.068C37.8947 214.48 36.5067 214.872 35.1387 215.232V214.496C36.4467 214.144 37.7707 213.772 39.1067 213.38C44.2387 211.864 49.7987 209.964 55.4307 207.58H55.4267Z" fill="#FF5729"/>
<path d="M101.159 165.384C101.267 165.384 101.375 165.384 101.487 165.392C100.435 168.512 99.1065 171.524 97.5065 174.428C96.8345 175.64 96.1185 176.836 95.3505 178.012C95.0865 177.968 94.8305 177.916 94.5825 177.868C95.3905 176.644 96.1585 175.376 96.8785 174.076C98.4185 171.28 99.6985 168.388 100.731 165.388C100.875 165.38 101.015 165.38 101.159 165.38V165.384Z" fill="#FF5729"/>
<path d="M70.8026 51.6841C70.5666 51.7401 70.3386 51.7921 70.1066 51.8481C66.9986 39.9601 66.3706 29.4201 68.2226 20.2761H68.9546C67.0826 29.3561 67.6986 39.8401 70.8026 51.6881V51.6841Z" fill="#FF5729"/>
<path d="M82.7068 82.1202C82.4228 82.0962 82.1468 82.0642 81.8668 82.0402C80.2908 78.8882 78.8428 75.8042 77.5188 72.7842C77.7548 72.7242 77.9908 72.6642 78.2268 72.6082C79.5868 75.7042 81.0748 78.8762 82.7068 82.1162V82.1202Z" fill="#FF5729"/>
<path d="M91.6906 99.1162C93.8466 103.432 95.7227 107.66 97.3427 111.776C97.0827 111.768 96.8186 111.756 96.5506 111.74C94.9386 107.648 93.0626 103.452 90.9106 99.1602C91.1746 99.1402 91.4346 99.1282 91.6906 99.1162Z" fill="#FF5729"/>
<path d="M104.539 144.304C104.303 144.296 104.063 144.284 103.819 144.284C103.727 140.456 103.311 136.508 102.583 132.432C102.823 132.424 103.071 132.42 103.307 132.408C104.039 136.488 104.447 140.456 104.539 144.3V144.304Z" fill="#FF5729"/>
<path d="M35.1387 204.896C43.6387 202.052 50.8827 198.86 57.0467 195.48C56.8587 195.844 56.6907 196.204 56.5267 196.572C50.4587 199.832 43.3827 202.912 35.1387 205.652V204.896Z" fill="#FF5729"/>
<path d="M64.2667 53.4282C64.0387 53.5002 63.8067 53.5682 63.5827 53.6402C59.6227 41.1122 58.2467 29.9762 59.4587 20.2722H60.1787C58.9547 29.8882 60.3187 40.9602 64.2667 53.4282Z" fill="#FF5729"/>
<path d="M76.2505 81.4802L75.3945 81.3762C74.1825 79.0642 73.0465 76.7802 71.9785 74.5442C72.2025 74.4602 72.4265 74.3762 72.6545 74.2922C73.7785 76.6482 74.9745 79.0482 76.2545 81.4842L76.2505 81.4802Z" fill="#FF5729"/>
<path d="M85.4307 99.5923C87.1507 103.492 88.6427 107.312 89.8987 111.052L89.1027 110.924V110.916C87.8547 107.252 86.3787 103.496 84.6787 99.6643C84.9267 99.6403 85.1787 99.6163 85.4347 99.5923H85.4307Z" fill="#FF5729"/>
<path d="M94.7705 144.448C94.5305 144.46 94.2864 144.48 94.0504 144.496C94.3624 140.572 94.3144 136.508 93.8984 132.308C94.1384 132.328 94.3824 132.34 94.6224 132.344C95.0264 136.516 95.0745 140.548 94.7665 144.448H94.7705Z" fill="#FF5729"/>
<path d="M62.8427 178.28C62.9707 178.484 63.1027 178.684 63.2427 178.884C56.4227 184.644 47.3107 190.384 35.1387 195.376V194.608C47.1467 189.652 56.1227 183.976 62.8427 178.276V178.28Z" fill="#FF5729"/>
<path d="M58.1624 55.5361L57.4904 55.7841C52.5624 42.4721 50.3864 30.6161 50.9584 20.2761H51.6704C51.0984 30.5281 53.2584 42.3001 58.1584 55.5401L58.1624 55.5361Z" fill="#FF5729"/>
<path d="M71.6069 85.7202C70.8109 84.1322 69.9629 82.5282 69.0909 80.9162C68.3429 79.5402 67.6189 78.1762 66.9189 76.8242C67.1309 76.7082 67.343 76.6002 67.551 76.4922C68.251 77.8402 68.9709 79.2042 69.7189 80.5722C70.2629 81.5762 70.7949 82.5722 71.3069 83.5602L71.5829 85.5082C71.5949 85.5802 71.5989 85.6482 71.6069 85.7202Z" fill="#FF5729"/>
<path d="M78.7905 100.152C79.9865 103.296 81.0105 106.388 81.8745 109.42C81.6025 109.36 81.3385 109.288 81.0705 109.216C80.2185 106.268 79.2105 103.268 78.0505 100.208L78.7865 100.152H78.7905Z" fill="#FF5729"/>
<path d="M83.9826 145.888C83.7226 145.944 83.4706 145.996 83.2146 146.056C84.2586 141.408 84.7426 136.54 84.6586 131.464C84.8946 131.496 85.1306 131.524 85.3706 131.56C85.4546 136.54 84.9906 141.316 83.9826 145.884V145.888Z" fill="#FF5729"/>
<path d="M60.6507 164.308C60.5547 164.744 60.4827 165.184 60.4227 165.632C54.7427 171.844 46.6507 178.364 35.1387 184.252V183.448C46.9107 177.388 55.0427 170.66 60.6507 164.312V164.308Z" fill="#FF5729"/>
<path d="M43.4267 20.2722C43.5347 34.3322 48.4787 51.0602 58.2467 70.3202C58.2027 70.7562 58.1547 71.1842 58.0947 71.6042C47.9587 51.8522 42.8267 34.6922 42.7107 20.2722H43.4227H43.4267Z" fill="#FF5729"/>
<path d="M73.3468 106.696C73.0708 106.588 72.7988 106.472 72.5268 106.364C70.4188 97.9123 67.0028 88.9843 62.2708 79.5963L62.8748 79.2043C66.3468 86.0923 69.1228 92.7403 71.1948 99.1323C71.3708 99.6643 71.5347 100.188 71.6907 100.712C72.3187 102.736 72.8748 104.728 73.3508 106.696H73.3468Z" fill="#FF5729"/>
<path d="M75.6748 129.976C75.2028 137.552 73.4068 144.628 70.2788 151.184C70.2788 151.192 70.2708 151.192 70.2708 151.192C69.8588 151.464 69.4548 151.736 69.0708 152.02C72.5188 145.204 74.4788 137.796 74.9628 129.828C75.1988 129.884 75.4348 129.932 75.6748 129.98V129.976Z" fill="#FF5729"/>
<path d="M51.751 69.6122C53.435 72.8122 54.975 75.9562 56.359 79.0522L56.071 80.1522C54.599 76.8082 52.943 73.4082 51.119 69.9442C41.043 51.0122 35.531 34.4162 34.595 20.2722H35.315C36.251 34.2962 41.739 50.7882 51.755 69.6122H51.751Z" fill="#FF5729"/>
<path d="M64.0593 101.528C63.7073 101.22 63.3873 100.908 63.1073 100.592C61.7553 94.9164 59.8033 89.0244 57.2593 82.9204L57.8633 82.5164C60.6233 89.0964 62.6873 95.4364 64.0633 101.528H64.0593Z" fill="#FF5729"/>
<path d="M65.635 127.248C64.699 134.56 62.467 141.38 58.939 147.688C54.911 154.892 47.771 163.736 35.135 171.968V171.112C47.407 163.036 54.375 154.388 58.315 147.34C61.823 141.068 64.027 134.276 64.939 126.996C65.167 127.088 65.399 127.172 65.635 127.248Z" fill="#FF5729"/>
<path d="M49.355 140.956C46.483 146.08 42.031 152.04 35.139 158.024V157.136C40.831 152.112 45.383 146.584 48.735 140.608C60.091 120.34 57.867 94.7282 42.135 64.4642C33.447 47.8922 28.327 33.1322 26.791 20.2722H27.511C29.051 33.0162 34.139 47.6602 42.771 64.1322C58.623 94.6242 60.839 120.468 49.359 140.96L49.355 140.956Z" fill="#FF5729"/>
<path d="M29.651 51.8682C27.943 48.2082 26.423 44.6482 25.095 41.1842V39.1482C26.603 43.2482 28.387 47.4842 30.451 51.8682H29.655H29.651Z" fill="#FF5729"/>
<path d="M39.767 134.232C38.535 136.424 37.015 138.772 35.135 141.204V140.032C36.591 138.084 37.935 136.028 39.143 133.88C49.875 114.784 48.531 90.9523 35.135 63.0003V61.3523C49.239 90.1083 50.795 114.612 39.767 134.232Z" fill="#FF5729"/>
<path d="M35.1389 115.776V112.956C37.2869 104.004 37.2829 94.2402 35.1389 83.7122V80.4202C38.2429 93.3162 38.2429 105.128 35.1389 115.772V115.776Z" fill="#FF5729"/>
</svg>
